<svg xmlns="http://www.w3.org/2000/svg" xmlns:xlink="http://www.w3.org/1999/xlink" xmlns:lucid="lucid" width="1454"
     height="600">
  <g transform="translate(-127 -200)" lucid:page-tab-id="0_0">
    <path
      d="M518.7 359.5l.15 9.63m.15 9.62l.3 19.25m.15 9.63l.3 19.25m.15 9.63l.3 19.26m.16 9.63l.3 19.24m.15 9.62l.3 19.26m.17 9.62l.3 19.25m.15 9.62l.3 19.25m.15 9.63l.3 19.25m.16 9.63l.3 19.25m.15 9.62l.3 19.26m.15 9.63l.3 19.25m.16 9.63l.3 19.26m.14 9.63l.15 9.6"
      stroke="#333" fill="none"/>
    <path d="M519.2 359.5l-1 .02V359h1z" fill="#333"/>
    <path d="M524.6 734.9v.5" stroke="#333" fill="none"/>
    <path d="M499.76 417.73c0-4.42 3.58-8 8-8h24c4.42 0 8 3.58 8 8V752c0 4.42-3.58 8-8 8h-24c-4.42 0-8-3.58-8-8z"
          stroke="#f2f2f2" fill="#ced4db"/>
    <path
      d="M879.52 359.5v10.3m0 10.32v20.62m0 10.3v20.63m0 10.3v20.63m0 10.3v20.63m0 10.3v20.63m0 10.3v10.35l-.04.02h-.03l-.02.04v10.3m0 10.32v20.62m0 10.3v20.63m0 10.3v20.63m0 10.3v20.63m0 10.3v20.62m0 10.3v10.32"
      stroke="#333" fill="none"/>
    <path d="M880.02 359.5h-1v-.5h1z" fill="#333"/>
    <path d="M879.43 730.73v.5" stroke="#333" fill="none"/>
    <path d="M859.52 417.73c0-4.42 3.58-8 8-8h24c4.42 0 8 3.58 8 8V752c0 4.42-3.58 8-8 8h-24c-4.42 0-8-3.58-8-8z"
          stroke="#f2f2f2" fill="#ced4db"/>
    <path d="M423.65 248c0-4.42 3.58-8 8-8h174.07c4.42 0 8 3.58 8 8v103c0 4.42-3.58 8-8 8H431.65c-4.42 0-8-3.58-8-8z"
          stroke="#000" stroke-opacity="0" fill="#ffaf28"/>
    <use xlink:href="#a"
         transform="matrix(1,0,0,1,431.6496896262572,248) translate(12.821180555555557 56.829861111111114)"/>
    <use xlink:href="#b"
         transform="matrix(1,0,0,1,431.6496896262572,248) translate(66.16319444444446 56.829861111111114)"/>
    <path d="M279.62 464.57h-29.3v-1h29.3zm203.26 0h-43.24v-1h43.24z" fill="#333"/>
    <path
      d="M239.4 449.58l3.6 1.5 3.1 2.38 2.4 3.12 1.5 3.6.5 3.9-.5 3.88-1.5 3.6-2.4 3.12-3.1 2.4-3.6 1.48-3.9.5-3.9-.5-3.6-1.5-3.1-2.4-2.4-3.1-1.5-3.6-.5-3.9.5-3.88 1.5-3.6 2.4-3.12 3.1-2.4 3.6-1.48 3.9-.5z"
      fill="#fff"/>
    <path
      d="M239.52 449.1l3.72 1.53 3.22 2.48 2.48 3.23 1.54 3.72.52 4.02-.52 4.02-1.54 3.7-2.48 3.23-3.22 2.47-3.72 1.55-4.02.52-4.02-.52-3.72-1.55-3.22-2.47-2.48-3.22-1.54-3.7-.52-4.03.52-4.02 1.54-3.72 2.48-3.22 3.22-2.47 3.72-1.54 4.02-.54zm-7.78.97l-3.48 1.44-3 2.32-2.32 3-1.44 3.5-.5 3.75.5 3.76 1.44 3.48 2.3 3.02 3.02 2.3 3.48 1.45 3.76.5 3.76-.5 3.48-1.44 3-2.3 2.32-3.02 1.44-3.47.5-3.76-.5-3.76-1.44-3.47-2.3-3-3.02-2.32-3.48-1.43-3.76-.5zM497.64 464.07l-14.26 4.63v-9.27z"
      fill="#333"/>
    <path d="M499.26 464.07l-16.38 5.32v-10.66zm-15.38 3.95l12.14-3.95-12.14-3.95z" fill="#333"/>
    <use xlink:href="#c"
         transform="matrix(1,0,0,1,279.6174017814199,446.29061844863736) translate(16.007604166666653 14.21875)"/>
    <use xlink:href="#d"
         transform="matrix(1,0,0,1,279.6174017814199,446.29061844863736) translate(58.68121527777777 14.21875)"/>
    <use xlink:href="#e"
         transform="matrix(1,0,0,1,279.6174017814199,446.29061844863736) translate(0.0049999999999954525 31.99652777777778)"/>
    <use xlink:href="#f"
         transform="matrix(1,0,0,1,279.6174017814199,446.29061844863736) translate(128.0258333333333 31.99652777777778)"/>
    <path d="M540.76 465.46h301.88" stroke="#333" fill="none"/>
    <path d="M540.77 465.96h-.5v-1h.5z" fill="#333"/>
    <path d="M857.4 465.46l-14.26 4.64v-9.28z" stroke="#333" fill="#333"/>
    <use xlink:href="#g"
         transform="matrix(1,0,0,1,614.2938539022311,469.4599056603774) translate(0.0049999999999954525 14.21875)"/>
    <use xlink:href="#h"
         transform="matrix(1,0,0,1,614.2938539022311,469.4599056603774) translate(42.67861111111111 14.21875)"/>
    <use xlink:href="#i"
         transform="matrix(1,0,0,1,614.2938539022311,469.4599056603774) translate(128.02583333333334 14.21875)"/>
    <path d="M784.48 248c0-4.42 3.6-8 8-8h174.08c4.42 0 8 3.58 8 8v103c0 4.42-3.58 8-8 8H792.48c-4.4 0-8-3.58-8-8z"
          stroke="#000" stroke-opacity="0" fill="#ffaf28"/>
    <use xlink:href="#j"
         transform="matrix(1,0,0,1,792.483687954477,248) translate(23.489583333333343 47.94097222222222)"/>
    <use xlink:href="#k" transform="matrix(1,0,0,1,792.483687954477,248) translate(66.16319444444444 65.71875)"/>
    <path
      d="M1259.26 359.5v10.12m0 10.12v20.24m0 10.12v20.24m0 10.12v20.24m0 10.12v20.25m0 10.12v20.23m0 10.12v10.12l-.8 1.95-1.95.8-1.94.8-.8 1.96v10.12m0 10.12v20.24m0 10.12v20.24m0 10.12v20.24m0 10.12v20.24m0 10.12v20.25m0 10.13v10.12"
      stroke="#333" fill="none"/>
    <path d="M1259.76 359.5h-1v-.5h1z" fill="#333"/>
    <path d="M1253.75 729.33v.52" stroke="#333" fill="none"/>
    <path d="M1239.26 417.73c0-4.42 3.58-8 8-8h24c4.42 0 8 3.58 8 8V752c0 4.42-3.58 8-8 8h-24c-4.42 0-8-3.58-8-8z"
          stroke="#f2f2f2" fill="#ced4db"/>
    <path d="M900.52 465.46h321.86" stroke="#333" fill="none"/>
    <path d="M900.53 465.96h-.5v-1h.5z" fill="#333"/>
    <path d="M1237.14 465.46l-14.26 4.64v-9.28z" stroke="#333" fill="#333"/>
    <use xlink:href="#l"
         transform="matrix(1,0,0,1,1005.3804677379807,469.4599056603774) translate(0.0049999999999954525 14.21875)"/>
    <use xlink:href="#m"
         transform="matrix(1,0,0,1,1005.3804677379807,469.4599056603774) translate(85.35222222222222 14.21875)"/>
    <path d="M1164.22 248c0-4.42 3.58-8 8-8h174.08c4.42 0 8 3.58 8 8v103c0 4.42-3.58 8-8 8h-174.08c-4.42 0-8-3.58-8-8z"
          stroke="#000" stroke-opacity="0" fill="#ffaf28"/>
    <use xlink:href="#a"
         transform="matrix(1,0,0,1,1172.2228427249706,248) translate(2.1527777777777857 56.829861111111114)"/>
    <use xlink:href="#n"
         transform="matrix(1,0,0,1,1172.2228427249706,248) translate(55.49479166666668 56.829861111111114)"/>
    <path
      d="M1440.5 535.68l-1.04 3.18-2.68 1.96-1.74.28h-124.9v-1h124.82l1.42-.23 2.23-1.62.9-2.73v-5.82h1zm-2.24-69.68l1.96 2.68.28 1.74v5.94h-1v-5.86l-.23-1.42-1.63-2.23-2.72-.9h-154.66v-1h154.82z"
      fill="#333"/>
    <path d="M1280.27 465.96h-.5v-1h.5zM1310.47 540.6l-15.15 14.85-14.85-14.85 14.85-14.85z" fill="#333"/>
    <path d="M1311.18 540.6l-15.87 15.55-15.54-15.55 15.55-15.55zm-30 0l14.14 14.15 14.43-14.15-14.43-14.14z"
          fill="#333"/>
    <use xlink:href="#o"
         transform="matrix(1,0,0,1,1354.6527777777778,476.3639937106918) translate(24.20638888888888 14.21875)"/>
    <use xlink:href="#p"
         transform="matrix(1,0,0,1,1354.6527777777778,476.3639937106918) translate(77.54840277777777 14.21875)"/>
    <use xlink:href="#q"
         transform="matrix(1,0,0,1,1354.6527777777778,476.3639937106918) translate(0.0049999999999954525 31.99652777777778)"/>
    <use xlink:href="#r"
         transform="matrix(1,0,0,1,1354.6527777777778,476.3639937106918) translate(106.68902777777777 31.99652777777778)"/>
    <use xlink:href="#s"
         transform="matrix(1,0,0,1,1354.6527777777778,476.3639937106918) translate(48.012812499999995 49.77430555555556)"/>
    <path
      d="M916.4 536.43h5.1m5.12 0h10.22m5.1 0h10.23m5.1 0h10.22m5.1 0h10.22m5.1 0h10.23m5.1 0h10.22m5.1 0h10.23m5.1 0h10.23m5.1 0h10.22m5.1 0h10.23m5.1 0h10.22m5.1 0h10.23m5.1 0h10.23m5.1 0h10.22m5.1 0h10.23m5.12 0h10.22m5.1 0h10.22m5.1 0h10.23m5.1 0h10.22m5.1 0h10.22m5.1 0h5.12"
      stroke="#333" fill="none"/>
    <path d="M901.64 536.43l14.27-4.64v9.26z" stroke="#333" fill="#333"/>
    <path d="M1238.76 536.93h-.5v-1h.5z" fill="#333"/>
    <use xlink:href="#t"
         transform="matrix(1,0,0,1,984.0436621824251,540.4268867924528) translate(0.0049999999999954525 14.21875)"/>
    <use xlink:href="#u"
         transform="matrix(1,0,0,1,984.0436621824251,540.4268867924528) translate(42.67861111111111 14.21875)"/>
    <use xlink:href="#v"
         transform="matrix(1,0,0,1,984.0436621824251,540.4268867924528) translate(128.02583333333334 14.21875)"/>
    <path
      d="M556.64 533.64h4.77m4.78 0h9.53m4.78 0H590m4.78 0h9.53m4.78 0h9.53m4.78 0h9.53m4.78 0h9.53m4.78 0h9.53m4.78 0h9.53m4.77 0h9.54m4.77 0h9.59m4.8 0h9.64m4.8 0h9.64m4.82 0h9.63m4.8 0h9.63m4.8 0h9.64m4.82 0h9.62m4.8 0h9.64m4.82 0H820m4.82 0h9.63m4.8 0h9.64m4.8 0h4.82"
      stroke="#333" fill="none"/>
    <path d="M541.88 533.64l14.26-4.63v9.28z" stroke="#333" fill="#333"/>
    <path d="M859.02 534.14h-.5v-1h.5z" fill="#333"/>
    <use xlink:href="#l"
         transform="matrix(1,0,0,1,635.6306594577868,537.6438679245284) translate(0.0049999999999954525 14.21875)"/>
    <use xlink:href="#w"
         transform="matrix(1,0,0,1,635.6306594577868,537.6438679245284) translate(85.35222222222222 14.21875)"/>
    <path
      d="M540.76 600.44h5.03m5.02 0h10.07m5.02 0h10.06m5.03 0h10.07m5.03 0h10.07m5.03 0h10.06m5.03 0h10.06m5.03 0h10.05m5.03 0h10.06m5.03 0h10.07m5.03 0h10.06m5.03 0h10.06m5.04 0h10.06m5.03 0H742m5.04 0h10.07m5.04 0h10.06m5.03 0h10.06m5.02 0h10.07m5.02 0h10.06m5.03 0h10.07m5.04 0h5.04"
      stroke="#333" fill="none"/>
    <path d="M540.77 600.94h-.5v-1h.5z" fill="#333"/>
    <path d="M857.4 600.44l-14.26 4.63v-9.27z" stroke="#333" fill="#333"/>
    <use xlink:href="#x"
         transform="matrix(1,0,0,1,614.2938539022311,604.436320754717) translate(0.0049999999999954525 14.21875)"/>
    <use xlink:href="#y"
         transform="matrix(1,0,0,1,614.2938539022311,604.436320754717) translate(42.67861111111111 14.21875)"/>
    <use xlink:href="#z"
         transform="matrix(1,0,0,1,614.2938539022311,604.436320754717) translate(128.02583333333334 14.21875)"/>
    <path
      d="M900.52 600.44h5.1m5.12 0h10.22m5.1 0h10.22m5.1 0h10.23m5.12 0h10.22m5.1 0h10.22m5.1 0h10.23m5.1 0h10.22m5.1 0h10.22m5.1 0h10.23m5.1 0h10.22m5.1 0h10.22m5.1 0h10.23m5.1 0h10.22m5.1 0h10.23m5.1 0h10.23m5.1 0h10.22m5.1 0h10.23m5.1 0h10.23m5.1 0h10.23m5.1 0h10.23m5.1 0h5.12"
      stroke="#333" fill="none"/>
    <path d="M900.53 600.94h-.5v-1h.5z" fill="#333"/>
    <path d="M1237.14 600.44l-14.26 4.63v-9.27z" stroke="#333" fill="#333"/>
    <use xlink:href="#A"
         transform="matrix(1,0,0,1,1005.3804677379807,604.436320754717) translate(0.0049999999999954525 14.21875)"/>
    <use xlink:href="#w"
         transform="matrix(1,0,0,1,1005.3804677379807,604.436320754717) translate(85.35222222222222 14.21875)"/>
    <path
      d="M1440.5 656.74l-1.04 3.18-2.68 1.96-1.74.28h-138.9v-1h138.82l1.42-.23 2.23-1.62.9-2.72v-15.25h1zm-2.24-52.98l1.96 2.68.28 1.74v15.37h-1v-15.3l-.23-1.4-1.63-2.24-2.72-.88h-124.78v-1h124.94z"
      fill="#333"/>
    <path d="M1310.47 603.22l-15.15 14.85-14.85-14.85 14.85-14.85z" fill="#333"/>
    <path
      d="M1311.18 603.22l-15.87 15.55-15.54-15.55 15.55-15.55zm-30 0l14.14 14.15 14.43-14.15-14.43-14.15zM1295.64 666.3l-14.26-4.64 14.26-4.63z"
      fill="#333"/>
    <path d="M1296.14 667l-16.38-5.34 16.38-5.32zm-13.14-5.34l12.14 3.95v-7.88z" fill="#333"/>
    <use xlink:href="#B"
         transform="matrix(1,0,0,1,1354.6527777777778,623.5521488469601) translate(0.0049999999999954525 14.21875)"/>
    <use xlink:href="#C"
         transform="matrix(1,0,0,1,1354.6527777777778,623.5521488469601) translate(42.67861111111111 14.21875)"/>
    <use xlink:href="#D"
         transform="matrix(1,0,0,1,1354.6527777777778,623.5521488469601) translate(128.02583333333334 14.21875)"/>
    <path d="M916.4 660.27h321.86" stroke="#333" fill="none"/>
    <path d="M901.64 660.27l14.27-4.63v9.27z" stroke="#333" fill="#333"/>
    <path d="M1238.76 660.77h-.5v-1h.5z" fill="#333"/>
    <g>
      <use xlink:href="#A"
           transform="matrix(1,0,0,1,1005.3804677379807,664.2712264150944) translate(0.0049999999999954525 14.21875)"/>
      <use xlink:href="#m"
           transform="matrix(1,0,0,1,1005.3804677379807,664.2712264150944) translate(85.35222222222222 14.21875)"/>
    </g>
    <path d="M556.64 660.27h301.88" stroke="#333" fill="none"/>
    <path d="M541.88 660.27l14.26-4.63v9.27z" stroke="#333" fill="#333"/>
    <path d="M859.02 660.77h-.5v-1h.5z" fill="#333"/>
    <g>
      <use xlink:href="#A"
           transform="matrix(1,0,0,1,635.6306594577868,664.2712264150945) translate(0.0049999999999954525 14.21875)"/>
      <use xlink:href="#m"
           transform="matrix(1,0,0,1,635.6306594577868,664.2712264150945) translate(85.35222222222222 14.21875)"/>
    </g>
    <path
      d="M329.02 596.76l3 .4h5v1h-5.05l-3.2-.43-2.96-1.22.4-.92zm23.1 1.4h-10.06v-1h10.06zm15.08 0h-10.05v-1h10.05zm15.1 0h-10.07v-1h10.06zm15.08 0h-10.06v-1h10.06zm15.1 0H402.4v-1h10.07zm15.08 0H417.5v-1h10.06zm15.08 0h-10.06v-1h10.06zm15.1 0h-10.07v-1h10.06zm15.08 0h-10.06v-1h10.06zm10.06 0h-5.03v-1h5.03zM320.5 585.6l.4 3.02 1.16 2.8-.92.4-1.22-2.94-.42-3.2v-4.34h1zm0-8.55h-1v-1.84h1zm0-19.6h-1v-1.85h1zm1.57-16.24l-1.17 2.82-.4 3.02v4.26h-1V547l.42-3.2 1.23-2.96zm14.98-5.7h-5.02l-3 .4-2.83 1.17-.38-.93 2.94-1.2 3.2-.43h5.1zm161.7 0h-5.04v-1h5.06zm-10.1 0h-10.1v-1h10.1zm-15.16 0h-10.1v-1h10.1zm-15.17 0h-10.1v-1h10.1zm-15.16 0h-10.1v-1h10.1zm-15.16 0h-10.1v-1H428zm-15.15 0h-10.1v-1h10.1zm-15.16 0h-10.1v-1h10.1zm-15.17 0h-10.1v-1h10.1zm-15.16 0h-10.1v-1h10.1zm-15.16 0h-10.1v-1h10.1z"
      fill="#333"/>
    <path d="M499.26 535.54h-.5v-1h.5zM497.64 597.65l-14.26 4.64V593z" fill="#333"/>
    <path d="M499.26 597.65l-16.38 5.33v-10.65zm-15.38 3.95l12.14-3.95-12.14-3.94z" fill="#333"/>
    <g>
      <use xlink:href="#E"
           transform="matrix(1,0,0,1,175.9765625,557.4554507337525) translate(0.0049999999999954525 14.21875)"/>
      <use xlink:href="#F"
           transform="matrix(1,0,0,1,175.9765625,557.4554507337525) translate(42.67861111111111 14.21875)"/>
      <use xlink:href="#G"
           transform="matrix(1,0,0,1,175.9765625,557.4554507337525) translate(149.36263888888888 14.21875)"/>
      <use xlink:href="#H"
           transform="matrix(1,0,0,1,175.9765625,557.4554507337525) translate(202.70465277777777 14.21875)"/>
    </g>
    <path d="M286.2 660.5h-35.87v-1h35.86zm212.56-1.12h-28.94v-1h28.94zM499.26 659.38h-.5v-1h.5z" fill="#333"/>
    <path
      d="M239.4 645.5l3.6 1.5 3.1 2.4 2.4 3.1 1.5 3.6.5 3.9-.5 3.9-1.5 3.6-2.4 3.1-3.1 2.4-3.6 1.5-3.9.5-3.9-.5-3.6-1.5-3.1-2.4-2.4-3.1-1.5-3.6-.5-3.9.5-3.9 1.5-3.6 2.4-3.1 3.1-2.4 3.6-1.5 3.9-.5z"
      fill="#333"/>
    <path
      d="M239.52 645.02l3.72 1.54 3.22 2.48 2.48 3.22 1.54 3.72.52 4.02-.52 4.02-1.54 3.72-2.48 3.22-3.22 2.48-3.72 1.54-4.02.52-4.02-.52-3.72-1.54-3.22-2.48-2.48-3.22-1.54-3.72L220 660l.52-4.02 1.54-3.72 2.48-3.22 3.22-2.48 3.72-1.54 4.02-.52zm-7.78.98l-3.48 1.44-3 2.3-2.32 3.02-1.44 3.48-.5 3.76.5 3.76 1.44 3.48 2.3 3 3.02 2.32 3.48 1.44 3.76.5 3.76-.5 3.48-1.44 3-2.3 2.32-3.02 1.44-3.48.5-3.76-.5-3.76-1.44-3.48-2.3-3-3.02-2.32-3.48-1.44-3.76-.5z"
      fill="#333"/>
    <g>
      <use xlink:href="#I"
           transform="matrix(1,0,0,1,286.1854553091916,649.8797169811321) translate(0.0049999999999954525 14.396484375)"/>
      <use xlink:href="#J"
           transform="matrix(1,0,0,1,286.1854553091916,649.8797169811321) translate(43.212031249999995 14.396484375)"/>
      <use xlink:href="#K"
           transform="matrix(1,0,0,1,286.1854553091916,649.8797169811321) translate(97.2208203125 14.396484375)"/>
    </g>
    <defs>
      <path fill="#333"
            d="M779-1349c276-3 478 117 419 404-54 263-252 422-569 431H348L248 0H57l262-1349h460zM631-665c230-6 380-118 380-337 0-148-118-194-285-194H480L377-665h254"
            id="L"/>
      <path fill="#333" d="M668-142h380L1020 0H38l28-142h422l155-798H324l27-142h499zm23-1150l37-192h200l-37 192H691"
            id="M"/>
      <path fill="#333"
            d="M815-1102c202-2 311 102 279 314-40 267-101 525-150 788H763l135-695c7-39 11-71 11-98 2-119-62-175-179-170-208 9-312 151-348 336L260 0H80c67-361 144-713 204-1082h170c-6 58-17 130-28 185h3c86-116 194-203 386-205"
            id="N"/>
      <path fill="#333"
            d="M940-897c13-60 29-133 48-185h171c-77 342-140 701-210 1050-56 281-202 456-521 456-206 0-338-74-349-267l189-25c4 106 77 157 192 156 278-2 302-269 347-509h-2C725-106 614-12 421-12c-211 0-301-105-301-316 0-334 99-623 338-734 55-26 121-37 194-37 155 0 253 77 285 202h3zM384-742c-65 178-183 620 124 597 157-12 241-101 302-217 41-78 77-217 77-335 0-159-63-268-216-268-166 0-240 95-287 223"
            id="O"/>
      <g id="a">
        <use transform="matrix(0.008680555555555556,0,0,0.008680555555555556,0,0)" xlink:href="#L"/>
        <use transform="matrix(0.008680555555555556,0,0,0.008680555555555556,10.668402777777779,0)" xlink:href="#M"/>
        <use transform="matrix(0.008680555555555556,0,0,0.008680555555555556,21.336805555555557,0)" xlink:href="#N"/>
        <use transform="matrix(0.008680555555555556,0,0,0.008680555555555556,32.005208333333336,0)" xlink:href="#O"/>
      </g>
      <path fill="#333" d="M359-1349h823l-30 156H836L634-156h316L920 0H97l30-156h316l202-1037H329" id="P"/>
      <path fill="#333"
            d="M574 16c-199 5-309-85-269-285l131-671H268l27-142h170l113-282h120l-55 282h432l-27 142H616c-43 233-105 457-132 696-16 144 198 111 324 99 46-6 96-14 136-22L918-30C819-5 700 13 574 16"
            id="Q"/>
      <path fill="#333"
            d="M948-272c-17 76-19 161 70 161 21 0 42-3 60-7L1056-6c-45 10-88 14-142 16-138 6-175-86-155-217h-6C661-83 550 15 337 20 138 24 42-104 82-302c49-247 238-349 523-354l236-4c9-47 22-94 22-148 0-118-65-155-184-157-151-3-231 57-266 172l-185-17c67-189 220-292 480-292 245 0 377 119 330 364zm-678-27c-21 109 31 185 140 182 176-5 282-102 348-217 37-66 43-123 59-200-145 7-304-9-409 44-71 36-119 96-138 191"
            id="R"/>
      <path fill="#333"
            d="M724-1102c292 0 423 159 388 460-35 307-154 537-400 628-65 24-136 34-212 34-254-2-388-131-388-387 0-255 97-480 226-595 103-92 231-140 386-140zM381-747C294-559 211-98 524-113c294-14 359-254 399-525 28-194-32-337-222-331-174 5-260 94-320 222"
            id="S"/>
      <path fill="#333"
            d="M523-832c93-143 191-271 425-270 69 0 147 7 203 17l-33 167c-114-19-266-34-366 15-148 73-248 213-284 395L369 0H189l136-701c21-116 30-253 22-381h171c8 76 8 174 0 250h5"
            id="T"/>
      <g id="b">
        <use transform="matrix(0.008680555555555556,0,0,0.008680555555555556,0,0)" xlink:href="#P"/>
        <use transform="matrix(0.008680555555555556,0,0,0.008680555555555556,10.668402777777779,0)" xlink:href="#N"/>
        <use transform="matrix(0.008680555555555556,0,0,0.008680555555555556,21.336805555555557,0)" xlink:href="#M"/>
        <use transform="matrix(0.008680555555555556,0,0,0.008680555555555556,32.005208333333336,0)" xlink:href="#Q"/>
        <use transform="matrix(0.008680555555555556,0,0,0.008680555555555556,42.673611111111114,0)" xlink:href="#M"/>
        <use transform="matrix(0.008680555555555556,0,0,0.008680555555555556,53.34201388888889,0)" xlink:href="#R"/>
        <use transform="matrix(0.008680555555555556,0,0,0.008680555555555556,64.01041666666667,0)" xlink:href="#Q"/>
        <use transform="matrix(0.008680555555555556,0,0,0.008680555555555556,74.67881944444446,0)" xlink:href="#S"/>
        <use transform="matrix(0.008680555555555556,0,0,0.008680555555555556,85.34722222222223,0)" xlink:href="#T"/>
      </g>
      <path fill="#333"
            d="M1074-1484C764-1178 497-826 497-240c0 287 95 480 206 665H513C401 244 309 50 309-234c0-588 264-946 575-1250h190"
            id="U"/>
      <path fill="#333"
            d="M261-1120c230-8 401-96 507-229h166L700-145h353L1025 0H52l28-145h439l199-1021c-97 119-281 184-486 194"
            id="V"/>
      <path fill="#333"
            d="M915-832c0 594-261 950-575 1257H148C458 120 728-231 728-816c0-288-97-482-209-668h192c111 180 204 370 204 652"
            id="W"/>
      <g id="c">
        <use transform="matrix(0.008680555555555556,0,0,0.008680555555555556,0,0)" xlink:href="#U"/>
        <use transform="matrix(0.008680555555555556,0,0,0.008680555555555556,10.668402777777779,0)" xlink:href="#V"/>
        <use transform="matrix(0.008680555555555556,0,0,0.008680555555555556,21.336805555555557,0)" xlink:href="#W"/>
      </g>
      <path fill="#333"
            d="M404-910c-91 237-198 789 172 775 112-4 203-35 275-74l65-336H623l31-160h479l-111 572C890-56 737 20 530 20c-288 0-414-182-414-471 0-410 145-744 442-874 111-49 295-62 416-19 132 46 202 153 226 305l-182 56c-23-138-86-231-243-231-216 0-307 139-371 304"
            id="X"/>
      <path fill="#333"
            d="M726-1102c256 0 385 126 386 379 1 67-11 147-25 220H315c-7 39-13 78-13 121 2 164 74 267 238 267 154 0 260-65 317-166l149 45C916-82 760 20 514 20c-259 0-398-131-398-390 0-357 148-615 421-704 62-20 125-28 189-28zm202 461c22-192-41-335-226-328-212 9-312 142-358 328h584"
            id="Y"/>
      <g id="d">
        <use transform="matrix(0.008680555555555556,0,0,0.008680555555555556,0,0)" xlink:href="#X"/>
        <use transform="matrix(0.008680555555555556,0,0,0.008680555555555556,10.668402777777779,0)" xlink:href="#Y"/>
        <use transform="matrix(0.008680555555555556,0,0,0.008680555555555556,21.336805555555557,0)" xlink:href="#N"/>
        <use transform="matrix(0.008680555555555556,0,0,0.008680555555555556,32.005208333333336,0)" xlink:href="#Y"/>
        <use transform="matrix(0.008680555555555556,0,0,0.008680555555555556,42.673611111111114,0)" xlink:href="#T"/>
        <use transform="matrix(0.008680555555555556,0,0,0.008680555555555556,53.34201388888889,0)" xlink:href="#R"/>
        <use transform="matrix(0.008680555555555556,0,0,0.008680555555555556,64.01041666666667,0)" xlink:href="#Q"/>
        <use transform="matrix(0.008680555555555556,0,0,0.008680555555555556,74.67881944444446,0)" xlink:href="#Y"/>
      </g>
      <path fill="#333" d="M512-1193l-96 494h676l-31 158H385L280 0H89l262-1349h891l-30 156H512" id="Z"/>
      <path fill="#333"
            d="M419 20c-186 0-282-64-284-243 0-40 5-86 15-138l140-721h180c-47 251-101 497-144 752-25 145 40 219 181 211 211-12 308-150 344-336l122-627h181C1087-721 1010-369 950 0H780c6-58 18-129 28-185h-3C720-71 616 20 419 20"
            id="aa"/>
      <path fill="#333" d="M659-142h380L1011 0H29l28-142h422l233-1200H423l27-142h469" id="ab"/>
      <path fill="#333"
            d="M1250-1318c-146-12-362-44-462 30-59 45-85 113-103 206h491l-27 142H658L475 0H295l183-940H216l27-142h262c39-288 215-425 565-400 70 5 148 8 208 19"
            id="ac"/>
      <path fill="#333"
            d="M1000-783c14-86 16-180-76-180-43 0-83 29-120 85s-67 140-88 251L594 0H426c49-261 107-518 150-783 14-86 14-191-77-180-103 13-137 116-173 209-17 43-28 93-39 147L169 0H0c67-361 144-713 204-1082h149c-6 55-18 122-28 175h2c54-95 112-192 254-195 127-2 153 72 158 196 61-99 122-196 274-196 124 0 168 64 168 192 0 67-10 125-22 189L1019 0H851c49-261 106-518 149-783"
            id="ad"/>
      <g id="e">
        <use transform="matrix(0.008680555555555556,0,0,0.008680555555555556,0,0)" xlink:href="#Z"/>
        <use transform="matrix(0.008680555555555556,0,0,0.008680555555555556,10.668402777777779,0)" xlink:href="#aa"/>
        <use transform="matrix(0.008680555555555556,0,0,0.008680555555555556,21.336805555555557,0)" xlink:href="#ab"/>
        <use transform="matrix(0.008680555555555556,0,0,0.008680555555555556,32.005208333333336,0)" xlink:href="#ac"/>
        <use transform="matrix(0.008680555555555556,0,0,0.008680555555555556,42.673611111111114,0)" xlink:href="#M"/>
        <use transform="matrix(0.008680555555555556,0,0,0.008680555555555556,53.34201388888889,0)" xlink:href="#ab"/>
        <use transform="matrix(0.008680555555555556,0,0,0.008680555555555556,64.01041666666667,0)" xlink:href="#ab"/>
        <use transform="matrix(0.008680555555555556,0,0,0.008680555555555556,74.67881944444446,0)" xlink:href="#ad"/>
        <use transform="matrix(0.008680555555555556,0,0,0.008680555555555556,85.34722222222223,0)" xlink:href="#Y"/>
        <use transform="matrix(0.008680555555555556,0,0,0.008680555555555556,96.015625,0)" xlink:href="#N"/>
        <use transform="matrix(0.008680555555555556,0,0,0.008680555555555556,106.68402777777777,0)" xlink:href="#Q"/>
      </g>
      <path fill="#333" d="M222 425l371-1909h547l-27 139H746L429 286h367l-27 139H222" id="ae"/>
      <path fill="#333" d="M575-1121l-75 384h621l-44 228H456L357 0H62l262-1349h939l-44 228H575" id="af"/>
      <path fill="#333" d="M66 425l38-191h336l297-1528H401l36-190h602L668 425H66" id="ag"/>
      <g id="f">
        <use transform="matrix(0.008680555555555556,0,0,0.008680555555555556,0,0)" xlink:href="#ae"/>
        <use transform="matrix(0.008680555555555556,0,0,0.008680555555555556,10.668402777777779,0)" xlink:href="#af"/>
        <use transform="matrix(0.008680555555555556,0,0,0.008680555555555556,21.336805555555557,0)" xlink:href="#ag"/>
      </g>
      <path fill="#333"
            d="M772-1370c250-5 434 113 380 368-48 227-231 344-394 464-130 96-274 183-388 290-35 33-63 67-86 102h723L979 0H39l23-117c190-289 528-436 773-668 71-67 136-137 136-262 0-129-96-175-227-175-165 0-275 97-315 238l-180-17c75-217 236-364 523-369"
            id="ah"/>
      <g id="g">
        <use transform="matrix(0.008680555555555556,0,0,0.008680555555555556,0,0)" xlink:href="#U"/>
        <use transform="matrix(0.008680555555555556,0,0,0.008680555555555556,10.668402777777779,0)" xlink:href="#ah"/>
        <use transform="matrix(0.008680555555555556,0,0,0.008680555555555556,21.336805555555557,0)" xlink:href="#W"/>
      </g>
      <path fill="#333"
            d="M808-1104c255 0 336 185 302 442-38 281-118 532-328 640-56 28-120 42-193 42-158 0-262-57-295-184-10-1-5 5-7 18-33 194-73 381-109 571H-3C92-78 198-570 284-1082h175c-4 58-14 124-24 178h4c78-115 178-200 369-200zM343-350c-1 156 68 242 223 237 244-7 292-220 339-433 43-194 50-428-171-419-257 11-321 210-371 441-15 68-20 127-20 174"
            id="ai"/>
      <g id="h">
        <use transform="matrix(0.008680555555555556,0,0,0.008680555555555556,0,0)" xlink:href="#L"/>
        <use transform="matrix(0.008680555555555556,0,0,0.008680555555555556,10.668402777777779,0)" xlink:href="#T"/>
        <use transform="matrix(0.008680555555555556,0,0,0.008680555555555556,21.336805555555557,0)" xlink:href="#Y"/>
        <use transform="matrix(0.008680555555555556,0,0,0.008680555555555556,32.005208333333336,0)" xlink:href="#ai"/>
        <use transform="matrix(0.008680555555555556,0,0,0.008680555555555556,42.673611111111114,0)" xlink:href="#R"/>
        <use transform="matrix(0.008680555555555556,0,0,0.008680555555555556,53.34201388888889,0)" xlink:href="#T"/>
        <use transform="matrix(0.008680555555555556,0,0,0.008680555555555556,64.01041666666667,0)" xlink:href="#Y"/>
      </g>
      <g id="i">
        <use transform="matrix(0.008680555555555556,0,0,0.008680555555555556,0,0)" xlink:href="#L"/>
        <use transform="matrix(0.008680555555555556,0,0,0.008680555555555556,10.668402777777779,0)" xlink:href="#M"/>
        <use transform="matrix(0.008680555555555556,0,0,0.008680555555555556,21.336805555555557,0)" xlink:href="#N"/>
        <use transform="matrix(0.008680555555555556,0,0,0.008680555555555556,32.005208333333336,0)" xlink:href="#O"/>
      </g>
      <path fill="#333"
            d="M772 0c2-57 14-121 24-174h-5C708-49 608 26 420 26 203 26 113-90 112-311c0-65 8-138 24-221 74-377 241-566 502-566 165 0 259 55 298 184 37-190 73-380 110-570h180C1133-988 1028-504 944 0H772zm109-648c26-189-33-326-219-317-242 11-291 213-338 427-15 68-22 130-23 201 1 149 51 224 193 224 258 0 321-215 372-441 8-34 12-65 15-94"
            id="aj"/>
      <path fill="#333"
            d="M9 279c104 15 163 3 243-53 63-44 133-143 181-237L171-1082h192c62 299 135 587 188 896 174-300 351-597 525-896h190L600 0c-97 160-186 316-352 396-73 35-176 36-265 18"
            id="ak"/>
      <g id="j">
        <use transform="matrix(0.008680555555555556,0,0,0.008680555555555556,0,0)" xlink:href="#P"/>
        <use transform="matrix(0.008680555555555556,0,0,0.008680555555555556,10.668402777777779,0)" xlink:href="#N"/>
        <use transform="matrix(0.008680555555555556,0,0,0.008680555555555556,21.336805555555557,0)" xlink:href="#Q"/>
        <use transform="matrix(0.008680555555555556,0,0,0.008680555555555556,32.005208333333336,0)" xlink:href="#Y"/>
        <use transform="matrix(0.008680555555555556,0,0,0.008680555555555556,42.673611111111114,0)" xlink:href="#T"/>
        <use transform="matrix(0.008680555555555556,0,0,0.008680555555555556,53.34201388888889,0)" xlink:href="#ad"/>
        <use transform="matrix(0.008680555555555556,0,0,0.008680555555555556,64.01041666666667,0)" xlink:href="#Y"/>
        <use transform="matrix(0.008680555555555556,0,0,0.008680555555555556,74.67881944444446,0)" xlink:href="#aj"/>
        <use transform="matrix(0.008680555555555556,0,0,0.008680555555555556,85.34722222222223,0)" xlink:href="#M"/>
        <use transform="matrix(0.008680555555555556,0,0,0.008680555555555556,96.015625,0)" xlink:href="#R"/>
        <use transform="matrix(0.008680555555555556,0,0,0.008680555555555556,106.68402777777777,0)" xlink:href="#T"/>
        <use transform="matrix(0.008680555555555556,0,0,0.008680555555555556,117.35243055555554,0)" xlink:href="#ak"/>
      </g>
      <path fill="#333"
            d="M731 0L431-1130c-8 85-19 175-34 254L227 0H57l262-1349h222L848-211c8-92 19-186 35-274l168-864h172L961 0H731"
            id="al"/>
      <g id="k">
        <use transform="matrix(0.008680555555555556,0,0,0.008680555555555556,0,0)" xlink:href="#al"/>
        <use transform="matrix(0.008680555555555556,0,0,0.008680555555555556,10.668402777777779,0)" xlink:href="#S"/>
        <use transform="matrix(0.008680555555555556,0,0,0.008680555555555556,21.336805555555557,0)" xlink:href="#aj"/>
        <use transform="matrix(0.008680555555555556,0,0,0.008680555555555556,32.005208333333336,0)" xlink:href="#Y"/>
      </g>
      <g id="l">
        <use transform="matrix(0.008680555555555556,0,0,0.008680555555555556,0,0)" xlink:href="#L"/>
        <use transform="matrix(0.008680555555555556,0,0,0.008680555555555556,10.668402777777779,0)" xlink:href="#T"/>
        <use transform="matrix(0.008680555555555556,0,0,0.008680555555555556,21.336805555555557,0)" xlink:href="#Y"/>
        <use transform="matrix(0.008680555555555556,0,0,0.008680555555555556,32.005208333333336,0)" xlink:href="#ai"/>
        <use transform="matrix(0.008680555555555556,0,0,0.008680555555555556,42.673611111111114,0)" xlink:href="#R"/>
        <use transform="matrix(0.008680555555555556,0,0,0.008680555555555556,53.34201388888889,0)" xlink:href="#T"/>
        <use transform="matrix(0.008680555555555556,0,0,0.008680555555555556,64.01041666666667,0)" xlink:href="#Y"/>
      </g>
      <g id="m">
        <use transform="matrix(0.008680555555555556,0,0,0.008680555555555556,0,0)" xlink:href="#L"/>
        <use transform="matrix(0.008680555555555556,0,0,0.008680555555555556,10.668402777777779,0)" xlink:href="#M"/>
        <use transform="matrix(0.008680555555555556,0,0,0.008680555555555556,21.336805555555557,0)" xlink:href="#N"/>
        <use transform="matrix(0.008680555555555556,0,0,0.008680555555555556,32.005208333333336,0)" xlink:href="#O"/>
      </g>
      <path fill="#333"
            d="M630-1349c335 0 545 126 545 459 0 418-179 721-489 846C517 24 281-7 57 0l262-1349h311zm346 567c33-285-98-417-375-411H480L278-156h162c141 0 254-45 341-133 100-101 170-285 195-493"
            id="am"/>
      <path fill="#333"
            d="M706-965c-176 0-278 51-278 181 0 125 156 122 261 155 163 51 371 93 326 320C971-85 782 18 512 20c-227 2-392-53-402-268l165-31c1 144 117 166 263 165 166-2 306-45 306-201 0-97-96-115-178-141-139-45-315-63-388-174-17-26-26-59-26-98 0-260 204-371 480-371 203 0 355 61 361 260l-166 20c2-122-100-146-221-146"
            id="an"/>
      <g id="n">
        <use transform="matrix(0.008680555555555556,0,0,0.008680555555555556,0,0)" xlink:href="#am"/>
        <use transform="matrix(0.008680555555555556,0,0,0.008680555555555556,10.668402777777779,0)" xlink:href="#Y"/>
        <use transform="matrix(0.008680555555555556,0,0,0.008680555555555556,21.336805555555557,0)" xlink:href="#an"/>
        <use transform="matrix(0.008680555555555556,0,0,0.008680555555555556,32.005208333333336,0)" xlink:href="#Q"/>
        <use transform="matrix(0.008680555555555556,0,0,0.008680555555555556,42.673611111111114,0)" xlink:href="#M"/>
        <use transform="matrix(0.008680555555555556,0,0,0.008680555555555556,53.34201388888889,0)" xlink:href="#N"/>
        <use transform="matrix(0.008680555555555556,0,0,0.008680555555555556,64.01041666666667,0)" xlink:href="#R"/>
        <use transform="matrix(0.008680555555555556,0,0,0.008680555555555556,74.67881944444446,0)" xlink:href="#Q"/>
        <use transform="matrix(0.008680555555555556,0,0,0.008680555555555556,85.34722222222223,0)" xlink:href="#M"/>
        <use transform="matrix(0.008680555555555556,0,0,0.008680555555555556,96.015625,0)" xlink:href="#S"/>
        <use transform="matrix(0.008680555555555556,0,0,0.008680555555555556,106.68402777777777,0)" xlink:href="#N"/>
      </g>
      <path fill="#333" d="M770 0l121-623H369L248 0H57l262-1349h191L400-783h522l110-566h191L961 0H770" id="ao"/>
      <g id="o">
        <use transform="matrix(0.008680555555555556,0,0,0.008680555555555556,0,0)" xlink:href="#ao"/>
        <use transform="matrix(0.008680555555555556,0,0,0.008680555555555556,10.668402777777779,0)" xlink:href="#S"/>
        <use transform="matrix(0.008680555555555556,0,0,0.008680555555555556,21.336805555555557,0)" xlink:href="#ab"/>
        <use transform="matrix(0.008680555555555556,0,0,0.008680555555555556,32.005208333333336,0)" xlink:href="#aj"/>
      </g>
      <path fill="#333"
            d="M522 20c-267 0-410-127-410-389 0-365 156-619 438-707 169-53 390-23 481 68 54 54 92 128 93 229l-194 14c0-132-80-198-224-196-263 3-339 192-386 415-13 63-19 121-19 174-1 166 74 255 240 253 161-2 266-84 309-215l188 12C961-121 793 20 522 20"
            id="ap"/>
      <path fill="#333" d="M809 0L540-499l-151 98L311 0H131l288-1484h180L419-557l577-525h211L678-617 1020 0H809"
            id="aq"/>
      <path fill="#333"
            d="M330-205c-28 182-63 358-171 466H40c68-80 114-159 142-262H97l40-205h193zm-63-671l40-205h193l-40 205H267"
            id="ar"/>
      <g id="p">
        <use transform="matrix(0.008680555555555556,0,0,0.008680555555555556,0,0)" xlink:href="#ai"/>
        <use transform="matrix(0.008680555555555556,0,0,0.008680555555555556,10.668402777777779,0)" xlink:href="#R"/>
        <use transform="matrix(0.008680555555555556,0,0,0.008680555555555556,21.336805555555557,0)" xlink:href="#ap"/>
        <use transform="matrix(0.008680555555555556,0,0,0.008680555555555556,32.005208333333336,0)" xlink:href="#aq"/>
        <use transform="matrix(0.008680555555555556,0,0,0.008680555555555556,42.673611111111114,0)" xlink:href="#Y"/>
        <use transform="matrix(0.008680555555555556,0,0,0.008680555555555556,53.34201388888889,0)" xlink:href="#Q"/>
        <use transform="matrix(0.008680555555555556,0,0,0.008680555555555556,64.01041666666667,0)" xlink:href="#ar"/>
      </g>
      <g id="q">
        <use transform="matrix(0.008680555555555556,0,0,0.008680555555555556,0,0)" xlink:href="#am"/>
        <use transform="matrix(0.008680555555555556,0,0,0.008680555555555556,10.668402777777779,0)" xlink:href="#Y"/>
        <use transform="matrix(0.008680555555555556,0,0,0.008680555555555556,21.336805555555557,0)" xlink:href="#Q"/>
        <use transform="matrix(0.008680555555555556,0,0,0.008680555555555556,32.005208333333336,0)" xlink:href="#Y"/>
        <use transform="matrix(0.008680555555555556,0,0,0.008680555555555556,42.673611111111114,0)" xlink:href="#T"/>
        <use transform="matrix(0.008680555555555556,0,0,0.008680555555555556,53.34201388888889,0)" xlink:href="#ad"/>
        <use transform="matrix(0.008680555555555556,0,0,0.008680555555555556,64.01041666666667,0)" xlink:href="#M"/>
        <use transform="matrix(0.008680555555555556,0,0,0.008680555555555556,74.67881944444446,0)" xlink:href="#N"/>
        <use transform="matrix(0.008680555555555556,0,0,0.008680555555555556,85.34722222222223,0)" xlink:href="#Y"/>
      </g>
      <path fill="#333"
            d="M747-1226c-195 1-328 74-328 254 0 150 168 158 292 193 206 58 444 122 384 409-56 265-271 388-594 390C217 22 49-81 40-338l192-37c3 179 117 247 303 246 215-2 375-80 375-283 0-168-187-179-325-221-168-51-357-87-357-299 0-308 229-433 548-438 258-4 409 81 417 324l-194 33c-2-154-93-214-252-213"
            id="as"/>
      <g id="r">
        <use transform="matrix(0.008680555555555556,0,0,0.008680555555555556,0,0)" xlink:href="#as"/>
        <use transform="matrix(0.008680555555555556,0,0,0.008680555555555556,10.668402777777779,0)" xlink:href="#Y"/>
        <use transform="matrix(0.008680555555555556,0,0,0.008680555555555556,21.336805555555557,0)" xlink:href="#N"/>
        <use transform="matrix(0.008680555555555556,0,0,0.008680555555555556,32.005208333333336,0)" xlink:href="#aj"/>
        <use transform="matrix(0.008680555555555556,0,0,0.008680555555555556,42.673611111111114,0)" xlink:href="#Y"/>
        <use transform="matrix(0.008680555555555556,0,0,0.008680555555555556,53.34201388888889,0)" xlink:href="#T"/>
      </g>
      <path fill="#333"
            d="M929 0l-64-382H302L91 0h-196l772-1349h217L1123 0H929zm-84-531c-33-225-70-447-100-674-114 230-242 451-363 674h463"
            id="at"/>
      <g id="s">
        <use transform="matrix(0.008680555555555556,0,0,0.008680555555555556,0,0)" xlink:href="#at"/>
        <use transform="matrix(0.008680555555555556,0,0,0.008680555555555556,10.668402777777779,0)" xlink:href="#aj"/>
        <use transform="matrix(0.008680555555555556,0,0,0.008680555555555556,21.336805555555557,0)" xlink:href="#aj"/>
        <use transform="matrix(0.008680555555555556,0,0,0.008680555555555556,32.005208333333336,0)" xlink:href="#T"/>
        <use transform="matrix(0.008680555555555556,0,0,0.008680555555555556,42.673611111111114,0)" xlink:href="#Y"/>
        <use transform="matrix(0.008680555555555556,0,0,0.008680555555555556,53.34201388888889,0)" xlink:href="#an"/>
        <use transform="matrix(0.008680555555555556,0,0,0.008680555555555556,64.01041666666667,0)" xlink:href="#an"/>
      </g>
      <path fill="#333" d="M894-319L832 0H652l62-319H60l27-140 808-890h199L922-461h188l-28 142H894zm-18-835L242-461h500"
            id="au"/>
      <g id="t">
        <use transform="matrix(0.008680555555555556,0,0,0.008680555555555556,0,0)" xlink:href="#U"/>
        <use transform="matrix(0.008680555555555556,0,0,0.008680555555555556,10.668402777777779,0)" xlink:href="#au"/>
        <use transform="matrix(0.008680555555555556,0,0,0.008680555555555556,21.336805555555557,0)" xlink:href="#W"/>
      </g>
      <g id="u">
        <use transform="matrix(0.008680555555555556,0,0,0.008680555555555556,0,0)" xlink:href="#L"/>
        <use transform="matrix(0.008680555555555556,0,0,0.008680555555555556,10.668402777777779,0)" xlink:href="#T"/>
        <use transform="matrix(0.008680555555555556,0,0,0.008680555555555556,21.336805555555557,0)" xlink:href="#Y"/>
        <use transform="matrix(0.008680555555555556,0,0,0.008680555555555556,32.005208333333336,0)" xlink:href="#ai"/>
        <use transform="matrix(0.008680555555555556,0,0,0.008680555555555556,42.673611111111114,0)" xlink:href="#R"/>
        <use transform="matrix(0.008680555555555556,0,0,0.008680555555555556,53.34201388888889,0)" xlink:href="#T"/>
        <use transform="matrix(0.008680555555555556,0,0,0.008680555555555556,64.01041666666667,0)" xlink:href="#Y"/>
      </g>
      <g id="v">
        <use transform="matrix(0.008680555555555556,0,0,0.008680555555555556,0,0)" xlink:href="#L"/>
        <use transform="matrix(0.008680555555555556,0,0,0.008680555555555556,10.668402777777779,0)" xlink:href="#S"/>
        <use transform="matrix(0.008680555555555556,0,0,0.008680555555555556,21.336805555555557,0)" xlink:href="#N"/>
        <use transform="matrix(0.008680555555555556,0,0,0.008680555555555556,32.005208333333336,0)" xlink:href="#O"/>
      </g>
      <g id="w">
        <use transform="matrix(0.008680555555555556,0,0,0.008680555555555556,0,0)" xlink:href="#L"/>
        <use transform="matrix(0.008680555555555556,0,0,0.008680555555555556,10.668402777777779,0)" xlink:href="#S"/>
        <use transform="matrix(0.008680555555555556,0,0,0.008680555555555556,21.336805555555557,0)" xlink:href="#N"/>
        <use transform="matrix(0.008680555555555556,0,0,0.008680555555555556,32.005208333333336,0)" xlink:href="#O"/>
      </g>
      <path fill="#333"
            d="M738-881c255-2 394 171 340 435-55 272-226 466-546 466-269 0-385-164-385-433 0-319 112-596 263-770 113-131 305-226 538-172 129 30 201 123 215 272l-179 31c-10-114-82-172-198-172-201 0-290 148-359 302-29 65-50 141-67 227 78-109 205-184 378-186zM336-481c-38 188 35 356 218 356 217 0 323-155 346-355 20-169-70-262-232-262-179 0-300 105-332 261"
            id="av"/>
      <g id="x">
        <use transform="matrix(0.008680555555555556,0,0,0.008680555555555556,0,0)" xlink:href="#U"/>
        <use transform="matrix(0.008680555555555556,0,0,0.008680555555555556,10.668402777777779,0)" xlink:href="#av"/>
        <use transform="matrix(0.008680555555555556,0,0,0.008680555555555556,21.336805555555557,0)" xlink:href="#W"/>
      </g>
      <g id="y">
        <use transform="matrix(0.008680555555555556,0,0,0.008680555555555556,0,0)" xlink:href="#Z"/>
        <use transform="matrix(0.008680555555555556,0,0,0.008680555555555556,10.668402777777779,0)" xlink:href="#aa"/>
        <use transform="matrix(0.008680555555555556,0,0,0.008680555555555556,21.336805555555557,0)" xlink:href="#ab"/>
        <use transform="matrix(0.008680555555555556,0,0,0.008680555555555556,32.005208333333336,0)" xlink:href="#ac"/>
        <use transform="matrix(0.008680555555555556,0,0,0.008680555555555556,42.673611111111114,0)" xlink:href="#M"/>
        <use transform="matrix(0.008680555555555556,0,0,0.008680555555555556,53.34201388888889,0)" xlink:href="#ab"/>
        <use transform="matrix(0.008680555555555556,0,0,0.008680555555555556,64.01041666666667,0)" xlink:href="#ab"/>
      </g>
      <g id="z">
        <use transform="matrix(0.008680555555555556,0,0,0.008680555555555556,0,0)" xlink:href="#L"/>
        <use transform="matrix(0.008680555555555556,0,0,0.008680555555555556,10.668402777777779,0)" xlink:href="#S"/>
        <use transform="matrix(0.008680555555555556,0,0,0.008680555555555556,21.336805555555557,0)" xlink:href="#N"/>
        <use transform="matrix(0.008680555555555556,0,0,0.008680555555555556,32.005208333333336,0)" xlink:href="#O"/>
      </g>
      <g id="A">
        <use transform="matrix(0.008680555555555556,0,0,0.008680555555555556,0,0)" xlink:href="#Z"/>
        <use transform="matrix(0.008680555555555556,0,0,0.008680555555555556,10.668402777777779,0)" xlink:href="#aa"/>
        <use transform="matrix(0.008680555555555556,0,0,0.008680555555555556,21.336805555555557,0)" xlink:href="#ab"/>
        <use transform="matrix(0.008680555555555556,0,0,0.008680555555555556,32.005208333333336,0)" xlink:href="#ac"/>
        <use transform="matrix(0.008680555555555556,0,0,0.008680555555555556,42.673611111111114,0)" xlink:href="#M"/>
        <use transform="matrix(0.008680555555555556,0,0,0.008680555555555556,53.34201388888889,0)" xlink:href="#ab"/>
        <use transform="matrix(0.008680555555555556,0,0,0.008680555555555556,64.01041666666667,0)" xlink:href="#ab"/>
      </g>
      <path fill="#333"
            d="M1199-1210C967-945 739-658 590-316c-46 105-78 210-99 316H303c81-373 277-663 481-925 76-98 158-190 240-279H287l28-145h911"
            id="aw"/>
      <g id="B">
        <use transform="matrix(0.008680555555555556,0,0,0.008680555555555556,0,0)" xlink:href="#U"/>
        <use transform="matrix(0.008680555555555556,0,0,0.008680555555555556,10.668402777777779,0)" xlink:href="#aw"/>
        <use transform="matrix(0.008680555555555556,0,0,0.008680555555555556,21.336805555555557,0)" xlink:href="#W"/>
      </g>
      <g id="C">
        <use transform="matrix(0.008680555555555556,0,0,0.008680555555555556,0,0)" xlink:href="#Z"/>
        <use transform="matrix(0.008680555555555556,0,0,0.008680555555555556,10.668402777777779,0)" xlink:href="#aa"/>
        <use transform="matrix(0.008680555555555556,0,0,0.008680555555555556,21.336805555555557,0)" xlink:href="#ab"/>
        <use transform="matrix(0.008680555555555556,0,0,0.008680555555555556,32.005208333333336,0)" xlink:href="#ac"/>
        <use transform="matrix(0.008680555555555556,0,0,0.008680555555555556,42.673611111111114,0)" xlink:href="#M"/>
        <use transform="matrix(0.008680555555555556,0,0,0.008680555555555556,53.34201388888889,0)" xlink:href="#ab"/>
        <use transform="matrix(0.008680555555555556,0,0,0.008680555555555556,64.01041666666667,0)" xlink:href="#ab"/>
      </g>
      <g id="D">
        <use transform="matrix(0.008680555555555556,0,0,0.008680555555555556,0,0)" xlink:href="#L"/>
        <use transform="matrix(0.008680555555555556,0,0,0.008680555555555556,10.668402777777779,0)" xlink:href="#M"/>
        <use transform="matrix(0.008680555555555556,0,0,0.008680555555555556,21.336805555555557,0)" xlink:href="#N"/>
        <use transform="matrix(0.008680555555555556,0,0,0.008680555555555556,32.005208333333336,0)" xlink:href="#O"/>
      </g>
      <path fill="#333"
            d="M708-869c260 2 424 154 372 425-54 284-253 464-590 464C243 20 91-77 84-315l186-21c11 141 96 212 253 209 216-5 334-129 370-313 35-180-76-283-251-282-126 0-208 47-281 101H185l188-728h801l-28 145H511L399-779c77-49 180-91 309-90"
            id="ax"/>
      <g id="E">
        <use transform="matrix(0.008680555555555556,0,0,0.008680555555555556,0,0)" xlink:href="#U"/>
        <use transform="matrix(0.008680555555555556,0,0,0.008680555555555556,10.668402777777779,0)" xlink:href="#ax"/>
        <use transform="matrix(0.008680555555555556,0,0,0.008680555555555556,21.336805555555557,0)" xlink:href="#W"/>
      </g>
      <g id="F">
        <use transform="matrix(0.008680555555555556,0,0,0.008680555555555556,0,0)" xlink:href="#am"/>
        <use transform="matrix(0.008680555555555556,0,0,0.008680555555555556,10.668402777777779,0)" xlink:href="#Y"/>
        <use transform="matrix(0.008680555555555556,0,0,0.008680555555555556,21.336805555555557,0)" xlink:href="#Q"/>
        <use transform="matrix(0.008680555555555556,0,0,0.008680555555555556,32.005208333333336,0)" xlink:href="#Y"/>
        <use transform="matrix(0.008680555555555556,0,0,0.008680555555555556,42.673611111111114,0)" xlink:href="#T"/>
        <use transform="matrix(0.008680555555555556,0,0,0.008680555555555556,53.34201388888889,0)" xlink:href="#ad"/>
        <use transform="matrix(0.008680555555555556,0,0,0.008680555555555556,64.01041666666667,0)" xlink:href="#M"/>
        <use transform="matrix(0.008680555555555556,0,0,0.008680555555555556,74.67881944444446,0)" xlink:href="#N"/>
        <use transform="matrix(0.008680555555555556,0,0,0.008680555555555556,85.34722222222223,0)" xlink:href="#Y"/>
      </g>
      <g id="G">
        <use transform="matrix(0.008680555555555556,0,0,0.008680555555555556,0,0)" xlink:href="#L"/>
        <use transform="matrix(0.008680555555555556,0,0,0.008680555555555556,10.668402777777779,0)" xlink:href="#S"/>
        <use transform="matrix(0.008680555555555556,0,0,0.008680555555555556,21.336805555555557,0)" xlink:href="#N"/>
        <use transform="matrix(0.008680555555555556,0,0,0.008680555555555556,32.005208333333336,0)" xlink:href="#O"/>
      </g>
      <path fill="#333" d="M608 0H410L167-1349h201c58 394 137 767 175 1181 194-409 422-787 631-1181h201" id="ay"/>
      <g id="H">
        <use transform="matrix(0.008680555555555556,0,0,0.008680555555555556,0,0)" xlink:href="#ay"/>
        <use transform="matrix(0.008680555555555556,0,0,0.008680555555555556,10.668402777777779,0)" xlink:href="#R"/>
        <use transform="matrix(0.008680555555555556,0,0,0.008680555555555556,21.336805555555557,0)" xlink:href="#ab"/>
        <use transform="matrix(0.008680555555555556,0,0,0.008680555555555556,32.005208333333336,0)" xlink:href="#M"/>
        <use transform="matrix(0.008680555555555556,0,0,0.008680555555555556,42.673611111111114,0)" xlink:href="#aj"/>
        <use transform="matrix(0.008680555555555556,0,0,0.008680555555555556,53.34201388888889,0)" xlink:href="#M"/>
        <use transform="matrix(0.008680555555555556,0,0,0.008680555555555556,64.01041666666667,0)" xlink:href="#Q"/>
        <use transform="matrix(0.008680555555555556,0,0,0.008680555555555556,74.67881944444446,0)" xlink:href="#ak"/>
      </g>
      <path fill="#333"
            d="M891-1484c-201 251-362 514-362 954 0 441 161 704 362 955H701C500 176 342-90 342-532c0-440 159-704 359-952h190"
            id="az"/>
      <path fill="#333"
            d="M809-709c168 33 285 134 285 331 0 277-191 398-480 398-287 0-481-120-481-396 0-192 118-296 281-331v-4c-145-39-248-139-248-313 0-238 192-346 444-346 211 0 357 75 422 217 19 41 27 86 27 131 0 172-101 274-250 309v4zm-197-70c168 0 260-73 260-233 0-158-100-224-262-224-160 0-260 68-260 224 0 155 97 232 262 233zm4 664c194 1 291-91 291-280 0-172-115-249-297-249-178 0-291 85-291 253 0 186 106 275 297 276"
            id="aA"/>
      <path fill="#333"
            d="M528-1484c201 248 357 511 357 952 0 442-156 709-357 957H336C537 174 700-89 700-530c0-440-163-703-364-954h192"
            id="aB"/>
      <g id="I">
        <use transform="matrix(0.0087890625,0,0,0.0087890625,0,0)" xlink:href="#az"/>
        <use transform="matrix(0.0087890625,0,0,0.0087890625,10.8017578125,0)" xlink:href="#aA"/>
        <use transform="matrix(0.0087890625,0,0,0.0087890625,21.603515625,0)" xlink:href="#aB"/>
      </g>
      <path fill="#333"
            d="M622-1349c296 4 497 117 497 404 0 282-193 424-485 431H353V0H162v-1349h460zm-15 684c195-3 320-88 320-277 0-184-129-255-328-254H353v531h254"
            id="aC"/>
      <path fill="#333" d="M745-142h380V0H143v-142h422v-798H246v-142h499v940zM545-1292v-192h200v192H545" id="aD"/>
      <path fill="#333"
            d="M706-1102c241 0 344 136 343 381V0H868v-695c1-168-57-273-220-268-190 6-283 138-283 336V0H185c-3-360 6-732-6-1082h170c4 54 7 126 8 185h3c63-121 164-204 346-205"
            id="aE"/>
      <path fill="#333"
            d="M1048-32c-2 300-135 456-433 456-222-1-358-88-400-267l184-25c22 99 100 157 222 156 184-2 248-125 248-315 0-64 3-133-2-194C807-100 706-13 524-12c-306 0-381-228-381-537 0-318 85-550 400-550 164 0 271 83 325 202h3c1-60 3-134 12-185h171c-13 339-4 702-6 1050zM585-145c210-8 284-178 284-406 0-192-52-331-177-392-33-16-69-22-104-22-223 2-259 184-259 414 0 229 31 415 256 406"
            id="aF"/>
      <g id="J">
        <use transform="matrix(0.0087890625,0,0,0.0087890625,0,0)" xlink:href="#aC"/>
        <use transform="matrix(0.0087890625,0,0,0.0087890625,10.8017578125,0)" xlink:href="#aD"/>
        <use transform="matrix(0.0087890625,0,0,0.0087890625,21.603515625,0)" xlink:href="#aE"/>
        <use transform="matrix(0.0087890625,0,0,0.0087890625,32.4052734375,0)" xlink:href="#aF"/>
      </g>
      <path fill="#333"
            d="M650-1214c-281 0-336 244-336 533 0 295 60 546 347 546 188 0 263-142 322-282l159 65C1058-155 935 20 659 20c-401 0-546-295-546-701 0-407 135-689 536-689 264 0 391 146 466 335l-168 65c-47-129-127-244-297-244"
            id="aG"/>
      <path fill="#333"
            d="M615-1102c343 0 484 203 482 560-1 347-147 562-488 562-336 0-475-219-479-562-4-349 156-560 485-560zm-8 989c240 0 301-180 301-429 0-245-55-427-290-427-236 0-299 181-299 427 0 243 61 429 288 429"
            id="aH"/>
      <path fill="#333"
            d="M904-1102c199 0 220 177 220 381V0H956v-686c-3-114 0-215-60-264-70-33-125-4-158 71-26 56-39 140-39 252V0H531v-686c-3-114-1-215-61-264-78-41-136 24-157 84-24 69-39 159-39 259V0H105c-3-360 6-732-6-1082h149c6 50 3 123 8 175 36-100 83-195 216-195 135 0 166 79 196 196 42-105 93-196 236-196"
            id="aI"/>
      <path fill="#333"
            d="M698-1104c312 3 392 244 392 558 0 315-82 566-392 566-169 0-277-65-331-184h-5c8 188 2 394 4 589H185V-858c0-76-1-156-6-224h175c6 52 9 120 10 178h4c58-122 150-202 330-200zm-49 991c225 0 255-203 255-433 0-225-32-419-253-419-236 0-285 192-285 441 0 237 53 411 283 411"
            id="aJ"/>
      <path fill="#333" d="M736-142h380V0H134v-142h422v-1200H267v-142h469v1342" id="aK"/>
      <path fill="#333"
            d="M617-1102c355 0 481 238 477 599H322c5 222 84 388 301 388 144 0 244-59 284-166l158 45C1002-72 854 20 623 20c-342 0-490-220-490-568 0-346 151-554 484-554zm291 461c-18-192-90-328-289-328-194 0-287 128-295 328h584"
            id="aL"/>
      <path fill="#333"
            d="M682 16c-209 0-323-80-324-285v-671H190v-142h170l58-282h120v282h432v142H538v652c2 114 60 155 182 155 106 0 209-16 297-34v137C921-4 806 16 682 16"
            id="aM"/>
      <g id="K">
        <use transform="matrix(0.0087890625,0,0,0.0087890625,0,0)" xlink:href="#aG"/>
        <use transform="matrix(0.0087890625,0,0,0.0087890625,10.8017578125,0)" xlink:href="#aH"/>
        <use transform="matrix(0.0087890625,0,0,0.0087890625,21.603515625,0)" xlink:href="#aI"/>
        <use transform="matrix(0.0087890625,0,0,0.0087890625,32.4052734375,0)" xlink:href="#aJ"/>
        <use transform="matrix(0.0087890625,0,0,0.0087890625,43.20703125,0)" xlink:href="#aK"/>
        <use transform="matrix(0.0087890625,0,0,0.0087890625,54.0087890625,0)" xlink:href="#aL"/>
        <use transform="matrix(0.0087890625,0,0,0.0087890625,64.810546875,0)" xlink:href="#aM"/>
        <use transform="matrix(0.0087890625,0,0,0.0087890625,75.6123046875,0)" xlink:href="#aL"/>
      </g>
    </defs>
  </g>
</svg>
