<svg xmlns="http://www.w3.org/2000/svg" xmlns:xlink="http://www.w3.org/1999/xlink" xmlns:lucid="lucid" width="1258.7"
     height="460">
  <g transform="translate(-253.98697916666669 -80)" lucid:page-tab-id="0_0">
    <path
      d="M518.7 219.5v10.02m0 10l-.02 20.05m0 10v20.05m0 10v20.05m0 10v20.05m0 10v20.05m0 10v20.05m0 10v20.05m0 10v20.05m0 10v20.05m0 10V520"
      stroke="#333" fill="none"/>
    <path d="M519.2 219.5h-1v-.5h1zM519.17 520v.5h-1v-.5z" fill="#333"/>
    <path d="M499.76 297.73c0-4.42 3.58-8 8-8h24c4.42 0 8 3.58 8 8V512c0 4.42-3.58 8-8 8h-24c-4.42 0-8-3.58-8-8z"
          stroke="#f2f2f2" fill="#ced4db"/>
    <path
      d="M879.52 237.5v9.36m0 9.35v18.73m0 9.35v18.7m0 9.37v18.7m0 9.37v18.7m0 9.37v9.34l.27.64.63.27.64.27.26.64V389m0 9.37v18.7m0 9.37v18.7m0 9.37v18.72m0 9.35v18.72m0 9.34V520"
      stroke="#333" fill="none"/>
    <path d="M880.02 237.5h-1v-.5h1zM881.83 520.5h-1v-.5h1z" fill="#333"/>
    <path d="M859.52 297.73c0-4.42 3.58-8 8-8h24c4.42 0 8 3.58 8 8V512c0 4.42-3.58 8-8 8h-24c-4.42 0-8-3.58-8-8z"
          stroke="#f2f2f2" fill="#ced4db"/>
    <path d="M423.65 108c0-4.42 3.58-8 8-8h174.07c4.42 0 8 3.58 8 8v103c0 4.42-3.58 8-8 8H431.65c-4.42 0-8-3.58-8-8z"
          stroke="#000" stroke-opacity="0" fill="#ffaf28"/>
    <use xlink:href="#a"
         transform="matrix(1,0,0,1,431.6496896262572,108) translate(12.821180555555557 56.829861111111114)"/>
    <use xlink:href="#b"
         transform="matrix(1,0,0,1,431.6496896262572,108) translate(66.16319444444446 56.829861111111114)"/>
    <path
      d="M340.5 359.17l.9 2.72 2.22 1.62 1.42.23h137.84v1H344.96l-1.74-.3-2.68-1.94-1.04-3.18v-.95h1zm158.26-41.74H345.08l-2.72.9-1.63 2.22-.23 1.42v.84h-1v-.9l.28-1.74 1.96-2.7 3.18-1.03h153.84zM499.26 317.43h-.5v-1h.5zM497.64 364.25l-14.26 4.63v-9.27z"
      fill="#333"/>
    <path d="M499.26 364.25l-16.38 5.32v-10.65zm-15.38 3.94l12.14-3.95-12.14-3.95z" fill="#333"/>
    <use xlink:href="#c"
         transform="matrix(1,0,0,1,259.9869791666667,322.8118448637317) translate(16.007604166666653 14.21875)"/>
    <use xlink:href="#d"
         transform="matrix(1,0,0,1,259.9869791666667,322.8118448637317) translate(58.68121527777777 14.21875)"/>
    <use xlink:href="#e"
         transform="matrix(1,0,0,1,259.9869791666667,322.8118448637317) translate(0.0049999999999954525 31.99652777777778)"/>
    <use xlink:href="#f"
         transform="matrix(1,0,0,1,259.9869791666667,322.8118448637317) translate(128.0258333333333 31.99652777777778)"/>
    <path d="M540.76 367.33h301.88" stroke="#333" fill="none"/>
    <path d="M540.77 367.83h-.5v-1h.5z" fill="#333"/>
    <path d="M857.4 367.33l-14.26 4.64v-9.27z" stroke="#333" fill="#333"/>
    <use xlink:href="#g"
         transform="matrix(1,0,0,1,603.6254511244535,371.33333333333326) translate(0.0049999999999954525 14.21875)"/>
    <use xlink:href="#h"
         transform="matrix(1,0,0,1,603.6254511244535,371.33333333333326) translate(42.67861111111111 14.21875)"/>
    <use xlink:href="#i"
         transform="matrix(1,0,0,1,603.6254511244535,371.33333333333326) translate(128.02583333333334 14.21875)"/>
    <path d="M784.48 108c0-4.42 3.6-8 8-8h174.08c4.42 0 8 3.58 8 8v121c0 4.42-3.58 8-8 8H792.48c-4.4 0-8-3.58-8-8z"
          stroke="#000" stroke-opacity="0" fill="#ffaf28"/>
    <use xlink:href="#j"
         transform="matrix(1,0,0,1,792.483687954477,108) translate(23.489583333333343 56.94097222222222)"/>
    <use xlink:href="#k" transform="matrix(1,0,0,1,792.483687954477,108) translate(66.16319444444444 74.71875)"/>
    <path
      d="M1259.26 219.5v9.6m0 9.6v19.2m0 9.6v19.22m0 9.6v19.2m0 9.6v19.2m0 9.6v9.62l-.28.68-.68.28-.68.28-.3.68v9.6m0 9.6v19.2m0 9.62v19.2m0 9.6v19.2m0 9.6v19.22m0 9.6v9.6"
      stroke="#333" fill="none"/>
    <path d="M1259.76 219.5h-1v-.5h1z" fill="#333"/>
    <path d="M1257.33 509.5v.5" stroke="#333" fill="none"/>
    <path d="M1239.26 297.73c0-4.42 3.58-8 8-8h24c4.42 0 8 3.58 8 8V512c0 4.42-3.58 8-8 8h-24c-4.42 0-8-3.58-8-8z"
          stroke="#f2f2f2" fill="#ced4db"/>
    <path d="M900.52 371.33h321.85" stroke="#333" fill="none"/>
    <path d="M900.53 371.83h-.5v-1h.5z" fill="#333"/>
    <path d="M1237.14 371.33l-14.26 4.64v-9.27z" stroke="#333" fill="#333"/>
    <use xlink:href="#l"
         transform="matrix(1,0,0,1,978.7094607935362,375.33333333333326) translate(0.0049999999999954525 14.21875)"/>
    <use xlink:href="#m"
         transform="matrix(1,0,0,1,978.7094607935362,375.33333333333326) translate(85.35222222222222 14.21875)"/>
    <path d="M1164.22 108c0-4.42 3.58-8 8-8h174.08c4.42 0 8 3.58 8 8v103c0 4.42-3.58 8-8 8h-174.08c-4.42 0-8-3.58-8-8z"
          stroke="#000" stroke-opacity="0" fill="#ffaf28"/>
    <use xlink:href="#a"
         transform="matrix(1,0,0,1,1172.2228427249706,108) translate(2.1527777777777857 56.829861111111114)"/>
    <use xlink:href="#n"
         transform="matrix(1,0,0,1,1172.2228427249706,108) translate(55.49479166666668 56.829861111111114)"/>
    <path
      d="M1400.5 431.75l-1.04 3.18-2.68 1.96-1.74.27h-98.9v-1h98.82l1.42-.23 2.23-1.63.9-2.7v-18.04h1zm-2.24-58.54l1.96 2.7.28 1.73v18.15h-1V377.7l-.23-1.42-1.63-2.22-2.72-.9h-114.66v-1h114.82z"
      fill="#333"/>
    <path d="M1280.27 373.17h-.5v-1h.5z" fill="#333"/>
    <path d="M1295.64 441.3l-14.26-4.63 14.26-4.64z" fill="#fff"/>
    <path d="M1296.14 442l-16.38-5.33 16.38-5.33zm-13.14-5.33l12.14 3.94v-7.88z" fill="#333"/>
    <use xlink:href="#o"
         transform="matrix(1,0,0,1,1293.3159722222222,395.77777777777777) translate(0.0049999999999954525 14.21875)"/>
    <use xlink:href="#p"
         transform="matrix(1,0,0,1,1293.3159722222222,395.77777777777777) translate(96.020625 14.21875)"/>
    <use xlink:href="#q"
         transform="matrix(1,0,0,1,1293.3159722222222,395.77777777777777) translate(149.36263888888888 14.21875)"/>
    <path d="M916.4 441.26h321.86" stroke="#333" fill="none"/>
    <path d="M901.64 441.26l14.27-4.63v9.27z" stroke="#333" fill="#333"/>
    <path d="M1238.76 441.76h-.5v-1h.5z" fill="#333"/>
    <g>
      <use xlink:href="#r"
           transform="matrix(1,0,0,1,984.0436621824251,445.2608452295066) translate(0.0049999999999954525 14.21875)"/>
      <use xlink:href="#s"
           transform="matrix(1,0,0,1,984.0436621824251,445.2608452295066) translate(42.67861111111111 14.21875)"/>
      <use xlink:href="#t"
           transform="matrix(1,0,0,1,984.0436621824251,445.2608452295066) translate(128.02583333333334 14.21875)"/>
    </g>
    <path d="M556.64 439.33h301.88" stroke="#333" fill="none"/>
    <path d="M541.88 439.33l14.26-4.63v9.27z" stroke="#333" fill="#333"/>
    <path d="M859.02 439.83h-.5v-1h.5z" fill="#333"/>
    <g>
      <use xlink:href="#u"
           transform="matrix(1,0,0,1,614.2938539022311,443.3333333333332) translate(0.0049999999999954525 14.21875)"/>
      <use xlink:href="#v"
           transform="matrix(1,0,0,1,614.2938539022311,443.3333333333332) translate(85.35222222222222 14.21875)"/>
    </g>
    <path d="M328.82 439.83H311v-1h17.82zm169.94 0h-18.7v-1h18.7zM499.26 439.83h-.5v-1h.5zM310.5 454.33h-30v-30h30z"
          fill="#333"/>
    <path d="M311 454.83h-31v-31h31zm-30-30v29h29v-29z" fill="#333"/>
    <g>
      <use xlink:href="#w"
           transform="matrix(1,0,0,1,328.821657576651,430.33333333333326) translate(0.0049999999999954525 14.396484375)"/>
      <use xlink:href="#x"
           transform="matrix(1,0,0,1,328.821657576651,430.33333333333326) translate(10.806757812499995 14.396484375)"/>
      <use xlink:href="#y"
           transform="matrix(1,0,0,1,328.821657576651,430.33333333333326) translate(64.815546875 14.396484375)"/>
    </g>
    <defs>
      <path fill="#333"
            d="M779-1349c276-3 478 117 419 404-54 263-252 422-569 431H348L248 0H57l262-1349h460zM631-665c230-6 380-118 380-337 0-148-118-194-285-194H480L377-665h254"
            id="z"/>
      <path fill="#333" d="M668-142h380L1020 0H38l28-142h422l155-798H324l27-142h499zm23-1150l37-192h200l-37 192H691"
            id="A"/>
      <path fill="#333"
            d="M815-1102c202-2 311 102 279 314-40 267-101 525-150 788H763l135-695c7-39 11-71 11-98 2-119-62-175-179-170-208 9-312 151-348 336L260 0H80c67-361 144-713 204-1082h170c-6 58-17 130-28 185h3c86-116 194-203 386-205"
            id="B"/>
      <path fill="#333"
            d="M940-897c13-60 29-133 48-185h171c-77 342-140 701-210 1050-56 281-202 456-521 456-206 0-338-74-349-267l189-25c4 106 77 157 192 156 278-2 302-269 347-509h-2C725-106 614-12 421-12c-211 0-301-105-301-316 0-334 99-623 338-734 55-26 121-37 194-37 155 0 253 77 285 202h3zM384-742c-65 178-183 620 124 597 157-12 241-101 302-217 41-78 77-217 77-335 0-159-63-268-216-268-166 0-240 95-287 223"
            id="C"/>
      <g id="a">
        <use transform="matrix(0.008680555555555556,0,0,0.008680555555555556,0,0)" xlink:href="#z"/>
        <use transform="matrix(0.008680555555555556,0,0,0.008680555555555556,10.668402777777779,0)" xlink:href="#A"/>
        <use transform="matrix(0.008680555555555556,0,0,0.008680555555555556,21.336805555555557,0)" xlink:href="#B"/>
        <use transform="matrix(0.008680555555555556,0,0,0.008680555555555556,32.005208333333336,0)" xlink:href="#C"/>
      </g>
      <path fill="#333" d="M359-1349h823l-30 156H836L634-156h316L920 0H97l30-156h316l202-1037H329" id="D"/>
      <path fill="#333"
            d="M574 16c-199 5-309-85-269-285l131-671H268l27-142h170l113-282h120l-55 282h432l-27 142H616c-43 233-105 457-132 696-16 144 198 111 324 99 46-6 96-14 136-22L918-30C819-5 700 13 574 16"
            id="E"/>
      <path fill="#333"
            d="M948-272c-17 76-19 161 70 161 21 0 42-3 60-7L1056-6c-45 10-88 14-142 16-138 6-175-86-155-217h-6C661-83 550 15 337 20 138 24 42-104 82-302c49-247 238-349 523-354l236-4c9-47 22-94 22-148 0-118-65-155-184-157-151-3-231 57-266 172l-185-17c67-189 220-292 480-292 245 0 377 119 330 364zm-678-27c-21 109 31 185 140 182 176-5 282-102 348-217 37-66 43-123 59-200-145 7-304-9-409 44-71 36-119 96-138 191"
            id="F"/>
      <path fill="#333"
            d="M724-1102c292 0 423 159 388 460-35 307-154 537-400 628-65 24-136 34-212 34-254-2-388-131-388-387 0-255 97-480 226-595 103-92 231-140 386-140zM381-747C294-559 211-98 524-113c294-14 359-254 399-525 28-194-32-337-222-331-174 5-260 94-320 222"
            id="G"/>
      <path fill="#333"
            d="M523-832c93-143 191-271 425-270 69 0 147 7 203 17l-33 167c-114-19-266-34-366 15-148 73-248 213-284 395L369 0H189l136-701c21-116 30-253 22-381h171c8 76 8 174 0 250h5"
            id="H"/>
      <g id="b">
        <use transform="matrix(0.008680555555555556,0,0,0.008680555555555556,0,0)" xlink:href="#D"/>
        <use transform="matrix(0.008680555555555556,0,0,0.008680555555555556,10.668402777777779,0)" xlink:href="#B"/>
        <use transform="matrix(0.008680555555555556,0,0,0.008680555555555556,21.336805555555557,0)" xlink:href="#A"/>
        <use transform="matrix(0.008680555555555556,0,0,0.008680555555555556,32.005208333333336,0)" xlink:href="#E"/>
        <use transform="matrix(0.008680555555555556,0,0,0.008680555555555556,42.673611111111114,0)" xlink:href="#A"/>
        <use transform="matrix(0.008680555555555556,0,0,0.008680555555555556,53.34201388888889,0)" xlink:href="#F"/>
        <use transform="matrix(0.008680555555555556,0,0,0.008680555555555556,64.01041666666667,0)" xlink:href="#E"/>
        <use transform="matrix(0.008680555555555556,0,0,0.008680555555555556,74.67881944444446,0)" xlink:href="#G"/>
        <use transform="matrix(0.008680555555555556,0,0,0.008680555555555556,85.34722222222223,0)" xlink:href="#H"/>
      </g>
      <path fill="#333"
            d="M1074-1484C764-1178 497-826 497-240c0 287 95 480 206 665H513C401 244 309 50 309-234c0-588 264-946 575-1250h190"
            id="I"/>
      <path fill="#333"
            d="M778-1370c265 0 387 149 381 421-8 347-108 641-279 816C787-38 668 16 502 20 192 27 89-213 128-534c36-292 118-539 270-692 93-94 212-144 380-144zM332-675c-50 247-71 554 201 548 198-4 278-133 341-289 53-133 101-344 104-531 3-173-58-280-228-277-204 3-283 125-346 284-28 70-51 159-72 265zm166 120l49-249h235l-49 249H498"
            id="J"/>
      <path fill="#333"
            d="M915-832c0 594-261 950-575 1257H148C458 120 728-231 728-816c0-288-97-482-209-668h192c111 180 204 370 204 652"
            id="K"/>
      <g id="c">
        <use transform="matrix(0.008680555555555556,0,0,0.008680555555555556,0,0)" xlink:href="#I"/>
        <use transform="matrix(0.008680555555555556,0,0,0.008680555555555556,10.668402777777779,0)" xlink:href="#J"/>
        <use transform="matrix(0.008680555555555556,0,0,0.008680555555555556,21.336805555555557,0)" xlink:href="#K"/>
      </g>
      <path fill="#333"
            d="M404-910c-91 237-198 789 172 775 112-4 203-35 275-74l65-336H623l31-160h479l-111 572C890-56 737 20 530 20c-288 0-414-182-414-471 0-410 145-744 442-874 111-49 295-62 416-19 132 46 202 153 226 305l-182 56c-23-138-86-231-243-231-216 0-307 139-371 304"
            id="L"/>
      <path fill="#333"
            d="M726-1102c256 0 385 126 386 379 1 67-11 147-25 220H315c-7 39-13 78-13 121 2 164 74 267 238 267 154 0 260-65 317-166l149 45C916-82 760 20 514 20c-259 0-398-131-398-390 0-357 148-615 421-704 62-20 125-28 189-28zm202 461c22-192-41-335-226-328-212 9-312 142-358 328h584"
            id="M"/>
      <g id="d">
        <use transform="matrix(0.008680555555555556,0,0,0.008680555555555556,0,0)" xlink:href="#L"/>
        <use transform="matrix(0.008680555555555556,0,0,0.008680555555555556,10.668402777777779,0)" xlink:href="#M"/>
        <use transform="matrix(0.008680555555555556,0,0,0.008680555555555556,21.336805555555557,0)" xlink:href="#B"/>
        <use transform="matrix(0.008680555555555556,0,0,0.008680555555555556,32.005208333333336,0)" xlink:href="#M"/>
        <use transform="matrix(0.008680555555555556,0,0,0.008680555555555556,42.673611111111114,0)" xlink:href="#H"/>
        <use transform="matrix(0.008680555555555556,0,0,0.008680555555555556,53.34201388888889,0)" xlink:href="#F"/>
        <use transform="matrix(0.008680555555555556,0,0,0.008680555555555556,64.01041666666667,0)" xlink:href="#E"/>
        <use transform="matrix(0.008680555555555556,0,0,0.008680555555555556,74.67881944444446,0)" xlink:href="#M"/>
      </g>
      <path fill="#333" d="M512-1193l-96 494h676l-31 158H385L280 0H89l262-1349h891l-30 156H512" id="N"/>
      <path fill="#333"
            d="M419 20c-186 0-282-64-284-243 0-40 5-86 15-138l140-721h180c-47 251-101 497-144 752-25 145 40 219 181 211 211-12 308-150 344-336l122-627h181C1087-721 1010-369 950 0H780c6-58 18-129 28-185h-3C720-71 616 20 419 20"
            id="O"/>
      <path fill="#333" d="M659-142h380L1011 0H29l28-142h422l233-1200H423l27-142h469" id="P"/>
      <path fill="#333"
            d="M1250-1318c-146-12-362-44-462 30-59 45-85 113-103 206h491l-27 142H658L475 0H295l183-940H216l27-142h262c39-288 215-425 565-400 70 5 148 8 208 19"
            id="Q"/>
      <path fill="#333"
            d="M1000-783c14-86 16-180-76-180-43 0-83 29-120 85s-67 140-88 251L594 0H426c49-261 107-518 150-783 14-86 14-191-77-180-103 13-137 116-173 209-17 43-28 93-39 147L169 0H0c67-361 144-713 204-1082h149c-6 55-18 122-28 175h2c54-95 112-192 254-195 127-2 153 72 158 196 61-99 122-196 274-196 124 0 168 64 168 192 0 67-10 125-22 189L1019 0H851c49-261 106-518 149-783"
            id="R"/>
      <g id="e">
        <use transform="matrix(0.008680555555555556,0,0,0.008680555555555556,0,0)" xlink:href="#N"/>
        <use transform="matrix(0.008680555555555556,0,0,0.008680555555555556,10.668402777777779,0)" xlink:href="#O"/>
        <use transform="matrix(0.008680555555555556,0,0,0.008680555555555556,21.336805555555557,0)" xlink:href="#P"/>
        <use transform="matrix(0.008680555555555556,0,0,0.008680555555555556,32.005208333333336,0)" xlink:href="#Q"/>
        <use transform="matrix(0.008680555555555556,0,0,0.008680555555555556,42.673611111111114,0)" xlink:href="#A"/>
        <use transform="matrix(0.008680555555555556,0,0,0.008680555555555556,53.34201388888889,0)" xlink:href="#P"/>
        <use transform="matrix(0.008680555555555556,0,0,0.008680555555555556,64.01041666666667,0)" xlink:href="#P"/>
        <use transform="matrix(0.008680555555555556,0,0,0.008680555555555556,74.67881944444446,0)" xlink:href="#R"/>
        <use transform="matrix(0.008680555555555556,0,0,0.008680555555555556,85.34722222222223,0)" xlink:href="#M"/>
        <use transform="matrix(0.008680555555555556,0,0,0.008680555555555556,96.015625,0)" xlink:href="#B"/>
        <use transform="matrix(0.008680555555555556,0,0,0.008680555555555556,106.68402777777777,0)" xlink:href="#E"/>
      </g>
      <path fill="#333" d="M222 425l371-1909h547l-27 139H746L429 286h367l-27 139H222" id="S"/>
      <path fill="#333" d="M575-1121l-75 384h621l-44 228H456L357 0H62l262-1349h939l-44 228H575" id="T"/>
      <path fill="#333" d="M66 425l38-191h336l297-1528H401l36-190h602L668 425H66" id="U"/>
      <g id="f">
        <use transform="matrix(0.008680555555555556,0,0,0.008680555555555556,0,0)" xlink:href="#S"/>
        <use transform="matrix(0.008680555555555556,0,0,0.008680555555555556,10.668402777777779,0)" xlink:href="#T"/>
        <use transform="matrix(0.008680555555555556,0,0,0.008680555555555556,21.336805555555557,0)" xlink:href="#U"/>
      </g>
      <path fill="#333"
            d="M261-1120c230-8 401-96 507-229h166L700-145h353L1025 0H52l28-145h439l199-1021c-97 119-281 184-486 194"
            id="V"/>
      <g id="g">
        <use transform="matrix(0.008680555555555556,0,0,0.008680555555555556,0,0)" xlink:href="#I"/>
        <use transform="matrix(0.008680555555555556,0,0,0.008680555555555556,10.668402777777779,0)" xlink:href="#V"/>
        <use transform="matrix(0.008680555555555556,0,0,0.008680555555555556,21.336805555555557,0)" xlink:href="#K"/>
      </g>
      <path fill="#333"
            d="M808-1104c255 0 336 185 302 442-38 281-118 532-328 640-56 28-120 42-193 42-158 0-262-57-295-184-10-1-5 5-7 18-33 194-73 381-109 571H-3C92-78 198-570 284-1082h175c-4 58-14 124-24 178h4c78-115 178-200 369-200zM343-350c-1 156 68 242 223 237 244-7 292-220 339-433 43-194 50-428-171-419-257 11-321 210-371 441-15 68-20 127-20 174"
            id="W"/>
      <g id="h">
        <use transform="matrix(0.008680555555555556,0,0,0.008680555555555556,0,0)" xlink:href="#z"/>
        <use transform="matrix(0.008680555555555556,0,0,0.008680555555555556,10.668402777777779,0)" xlink:href="#H"/>
        <use transform="matrix(0.008680555555555556,0,0,0.008680555555555556,21.336805555555557,0)" xlink:href="#M"/>
        <use transform="matrix(0.008680555555555556,0,0,0.008680555555555556,32.005208333333336,0)" xlink:href="#W"/>
        <use transform="matrix(0.008680555555555556,0,0,0.008680555555555556,42.673611111111114,0)" xlink:href="#F"/>
        <use transform="matrix(0.008680555555555556,0,0,0.008680555555555556,53.34201388888889,0)" xlink:href="#H"/>
        <use transform="matrix(0.008680555555555556,0,0,0.008680555555555556,64.01041666666667,0)" xlink:href="#M"/>
      </g>
      <g id="i">
        <use transform="matrix(0.008680555555555556,0,0,0.008680555555555556,0,0)" xlink:href="#I"/>
        <use transform="matrix(0.008680555555555556,0,0,0.008680555555555556,10.668402777777779,0)" xlink:href="#z"/>
        <use transform="matrix(0.008680555555555556,0,0,0.008680555555555556,21.336805555555557,0)" xlink:href="#A"/>
        <use transform="matrix(0.008680555555555556,0,0,0.008680555555555556,32.005208333333336,0)" xlink:href="#B"/>
        <use transform="matrix(0.008680555555555556,0,0,0.008680555555555556,42.673611111111114,0)" xlink:href="#C"/>
        <use transform="matrix(0.008680555555555556,0,0,0.008680555555555556,53.34201388888889,0)" xlink:href="#K"/>
      </g>
      <path fill="#333"
            d="M772 0c2-57 14-121 24-174h-5C708-49 608 26 420 26 203 26 113-90 112-311c0-65 8-138 24-221 74-377 241-566 502-566 165 0 259 55 298 184 37-190 73-380 110-570h180C1133-988 1028-504 944 0H772zm109-648c26-189-33-326-219-317-242 11-291 213-338 427-15 68-22 130-23 201 1 149 51 224 193 224 258 0 321-215 372-441 8-34 12-65 15-94"
            id="X"/>
      <path fill="#333"
            d="M9 279c104 15 163 3 243-53 63-44 133-143 181-237L171-1082h192c62 299 135 587 188 896 174-300 351-597 525-896h190L600 0c-97 160-186 316-352 396-73 35-176 36-265 18"
            id="Y"/>
      <g id="j">
        <use transform="matrix(0.008680555555555556,0,0,0.008680555555555556,0,0)" xlink:href="#D"/>
        <use transform="matrix(0.008680555555555556,0,0,0.008680555555555556,10.668402777777779,0)" xlink:href="#B"/>
        <use transform="matrix(0.008680555555555556,0,0,0.008680555555555556,21.336805555555557,0)" xlink:href="#E"/>
        <use transform="matrix(0.008680555555555556,0,0,0.008680555555555556,32.005208333333336,0)" xlink:href="#M"/>
        <use transform="matrix(0.008680555555555556,0,0,0.008680555555555556,42.673611111111114,0)" xlink:href="#H"/>
        <use transform="matrix(0.008680555555555556,0,0,0.008680555555555556,53.34201388888889,0)" xlink:href="#R"/>
        <use transform="matrix(0.008680555555555556,0,0,0.008680555555555556,64.01041666666667,0)" xlink:href="#M"/>
        <use transform="matrix(0.008680555555555556,0,0,0.008680555555555556,74.67881944444446,0)" xlink:href="#X"/>
        <use transform="matrix(0.008680555555555556,0,0,0.008680555555555556,85.34722222222223,0)" xlink:href="#A"/>
        <use transform="matrix(0.008680555555555556,0,0,0.008680555555555556,96.015625,0)" xlink:href="#F"/>
        <use transform="matrix(0.008680555555555556,0,0,0.008680555555555556,106.68402777777777,0)" xlink:href="#H"/>
        <use transform="matrix(0.008680555555555556,0,0,0.008680555555555556,117.35243055555554,0)" xlink:href="#Y"/>
      </g>
      <path fill="#333"
            d="M731 0L431-1130c-8 85-19 175-34 254L227 0H57l262-1349h222L848-211c8-92 19-186 35-274l168-864h172L961 0H731"
            id="Z"/>
      <g id="k">
        <use transform="matrix(0.008680555555555556,0,0,0.008680555555555556,0,0)" xlink:href="#Z"/>
        <use transform="matrix(0.008680555555555556,0,0,0.008680555555555556,10.668402777777779,0)" xlink:href="#G"/>
        <use transform="matrix(0.008680555555555556,0,0,0.008680555555555556,21.336805555555557,0)" xlink:href="#X"/>
        <use transform="matrix(0.008680555555555556,0,0,0.008680555555555556,32.005208333333336,0)" xlink:href="#M"/>
      </g>
      <g id="l">
        <use transform="matrix(0.008680555555555556,0,0,0.008680555555555556,0,0)" xlink:href="#z"/>
        <use transform="matrix(0.008680555555555556,0,0,0.008680555555555556,10.668402777777779,0)" xlink:href="#H"/>
        <use transform="matrix(0.008680555555555556,0,0,0.008680555555555556,21.336805555555557,0)" xlink:href="#M"/>
        <use transform="matrix(0.008680555555555556,0,0,0.008680555555555556,32.005208333333336,0)" xlink:href="#W"/>
        <use transform="matrix(0.008680555555555556,0,0,0.008680555555555556,42.673611111111114,0)" xlink:href="#F"/>
        <use transform="matrix(0.008680555555555556,0,0,0.008680555555555556,53.34201388888889,0)" xlink:href="#H"/>
        <use transform="matrix(0.008680555555555556,0,0,0.008680555555555556,64.01041666666667,0)" xlink:href="#M"/>
      </g>
      <path fill="#333"
            d="M913 0H709c-23-224-51-444-69-673C534-442 415-224 302 0H99l27-1082h178c-17 313-15 643-55 933 97-223 211-425 317-638h193c22 211 51 414 61 638 86-332 210-623 317-933h176"
            id="aa"/>
      <g id="m">
        <use transform="matrix(0.008680555555555556,0,0,0.008680555555555556,0,0)" xlink:href="#I"/>
        <use transform="matrix(0.008680555555555556,0,0,0.008680555555555556,10.668402777777779,0)" xlink:href="#Q"/>
        <use transform="matrix(0.008680555555555556,0,0,0.008680555555555556,21.336805555555557,0)" xlink:href="#G"/>
        <use transform="matrix(0.008680555555555556,0,0,0.008680555555555556,32.005208333333336,0)" xlink:href="#H"/>
        <use transform="matrix(0.008680555555555556,0,0,0.008680555555555556,42.673611111111114,0)" xlink:href="#aa"/>
        <use transform="matrix(0.008680555555555556,0,0,0.008680555555555556,53.34201388888889,0)" xlink:href="#F"/>
        <use transform="matrix(0.008680555555555556,0,0,0.008680555555555556,64.01041666666667,0)" xlink:href="#H"/>
        <use transform="matrix(0.008680555555555556,0,0,0.008680555555555556,74.67881944444446,0)" xlink:href="#X"/>
        <use transform="matrix(0.008680555555555556,0,0,0.008680555555555556,85.34722222222223,0)" xlink:href="#K"/>
      </g>
      <path fill="#333"
            d="M630-1349c335 0 545 126 545 459 0 418-179 721-489 846C517 24 281-7 57 0l262-1349h311zm346 567c33-285-98-417-375-411H480L278-156h162c141 0 254-45 341-133 100-101 170-285 195-493"
            id="ab"/>
      <path fill="#333"
            d="M706-965c-176 0-278 51-278 181 0 125 156 122 261 155 163 51 371 93 326 320C971-85 782 18 512 20c-227 2-392-53-402-268l165-31c1 144 117 166 263 165 166-2 306-45 306-201 0-97-96-115-178-141-139-45-315-63-388-174-17-26-26-59-26-98 0-260 204-371 480-371 203 0 355 61 361 260l-166 20c2-122-100-146-221-146"
            id="ac"/>
      <g id="n">
        <use transform="matrix(0.008680555555555556,0,0,0.008680555555555556,0,0)" xlink:href="#ab"/>
        <use transform="matrix(0.008680555555555556,0,0,0.008680555555555556,10.668402777777779,0)" xlink:href="#M"/>
        <use transform="matrix(0.008680555555555556,0,0,0.008680555555555556,21.336805555555557,0)" xlink:href="#ac"/>
        <use transform="matrix(0.008680555555555556,0,0,0.008680555555555556,32.005208333333336,0)" xlink:href="#E"/>
        <use transform="matrix(0.008680555555555556,0,0,0.008680555555555556,42.673611111111114,0)" xlink:href="#A"/>
        <use transform="matrix(0.008680555555555556,0,0,0.008680555555555556,53.34201388888889,0)" xlink:href="#B"/>
        <use transform="matrix(0.008680555555555556,0,0,0.008680555555555556,64.01041666666667,0)" xlink:href="#F"/>
        <use transform="matrix(0.008680555555555556,0,0,0.008680555555555556,74.67881944444446,0)" xlink:href="#E"/>
        <use transform="matrix(0.008680555555555556,0,0,0.008680555555555556,85.34722222222223,0)" xlink:href="#A"/>
        <use transform="matrix(0.008680555555555556,0,0,0.008680555555555556,96.015625,0)" xlink:href="#G"/>
        <use transform="matrix(0.008680555555555556,0,0,0.008680555555555556,106.68402777777777,0)" xlink:href="#B"/>
      </g>
      <path fill="#333" d="M608 0H410L167-1349h201c58 394 137 767 175 1181 194-409 422-787 631-1181h201" id="ad"/>
      <g id="o">
        <use transform="matrix(0.008680555555555556,0,0,0.008680555555555556,0,0)" xlink:href="#ad"/>
        <use transform="matrix(0.008680555555555556,0,0,0.008680555555555556,10.668402777777779,0)" xlink:href="#F"/>
        <use transform="matrix(0.008680555555555556,0,0,0.008680555555555556,21.336805555555557,0)" xlink:href="#P"/>
        <use transform="matrix(0.008680555555555556,0,0,0.008680555555555556,32.005208333333336,0)" xlink:href="#A"/>
        <use transform="matrix(0.008680555555555556,0,0,0.008680555555555556,42.673611111111114,0)" xlink:href="#X"/>
        <use transform="matrix(0.008680555555555556,0,0,0.008680555555555556,53.34201388888889,0)" xlink:href="#F"/>
        <use transform="matrix(0.008680555555555556,0,0,0.008680555555555556,64.01041666666667,0)" xlink:href="#E"/>
        <use transform="matrix(0.008680555555555556,0,0,0.008680555555555556,74.67881944444446,0)" xlink:href="#M"/>
      </g>
      <g id="p">
        <use transform="matrix(0.008680555555555556,0,0,0.008680555555555556,0,0)" xlink:href="#z"/>
        <use transform="matrix(0.008680555555555556,0,0,0.008680555555555556,10.668402777777779,0)" xlink:href="#A"/>
        <use transform="matrix(0.008680555555555556,0,0,0.008680555555555556,21.336805555555557,0)" xlink:href="#B"/>
        <use transform="matrix(0.008680555555555556,0,0,0.008680555555555556,32.005208333333336,0)" xlink:href="#C"/>
      </g>
      <path fill="#333"
            d="M522 20c-267 0-410-127-410-389 0-365 156-619 438-707 169-53 390-23 481 68 54 54 92 128 93 229l-194 14c0-132-80-198-224-196-263 3-339 192-386 415-13 63-19 121-19 174-1 166 74 255 240 253 161-2 266-84 309-215l188 12C961-121 793 20 522 20"
            id="ae"/>
      <path fill="#333" d="M809 0L540-499l-151 98L311 0H131l288-1484h180L419-557l577-525h211L678-617 1020 0H809"
            id="af"/>
      <g id="q">
        <use transform="matrix(0.008680555555555556,0,0,0.008680555555555556,0,0)" xlink:href="#z"/>
        <use transform="matrix(0.008680555555555556,0,0,0.008680555555555556,10.668402777777779,0)" xlink:href="#F"/>
        <use transform="matrix(0.008680555555555556,0,0,0.008680555555555556,21.336805555555557,0)" xlink:href="#ae"/>
        <use transform="matrix(0.008680555555555556,0,0,0.008680555555555556,32.005208333333336,0)" xlink:href="#af"/>
        <use transform="matrix(0.008680555555555556,0,0,0.008680555555555556,42.673611111111114,0)" xlink:href="#M"/>
        <use transform="matrix(0.008680555555555556,0,0,0.008680555555555556,53.34201388888889,0)" xlink:href="#E"/>
      </g>
      <path fill="#333"
            d="M772-1370c250-5 434 113 380 368-48 227-231 344-394 464-130 96-274 183-388 290-35 33-63 67-86 102h723L979 0H39l23-117c190-289 528-436 773-668 71-67 136-137 136-262 0-129-96-175-227-175-165 0-275 97-315 238l-180-17c75-217 236-364 523-369"
            id="ag"/>
      <g id="r">
        <use transform="matrix(0.008680555555555556,0,0,0.008680555555555556,0,0)" xlink:href="#I"/>
        <use transform="matrix(0.008680555555555556,0,0,0.008680555555555556,10.668402777777779,0)" xlink:href="#ag"/>
        <use transform="matrix(0.008680555555555556,0,0,0.008680555555555556,21.336805555555557,0)" xlink:href="#K"/>
      </g>
      <g id="s">
        <use transform="matrix(0.008680555555555556,0,0,0.008680555555555556,0,0)" xlink:href="#N"/>
        <use transform="matrix(0.008680555555555556,0,0,0.008680555555555556,10.668402777777779,0)" xlink:href="#O"/>
        <use transform="matrix(0.008680555555555556,0,0,0.008680555555555556,21.336805555555557,0)" xlink:href="#P"/>
        <use transform="matrix(0.008680555555555556,0,0,0.008680555555555556,32.005208333333336,0)" xlink:href="#Q"/>
        <use transform="matrix(0.008680555555555556,0,0,0.008680555555555556,42.673611111111114,0)" xlink:href="#A"/>
        <use transform="matrix(0.008680555555555556,0,0,0.008680555555555556,53.34201388888889,0)" xlink:href="#P"/>
        <use transform="matrix(0.008680555555555556,0,0,0.008680555555555556,64.01041666666667,0)" xlink:href="#P"/>
      </g>
      <g id="t">
        <use transform="matrix(0.008680555555555556,0,0,0.008680555555555556,0,0)" xlink:href="#z"/>
        <use transform="matrix(0.008680555555555556,0,0,0.008680555555555556,10.668402777777779,0)" xlink:href="#A"/>
        <use transform="matrix(0.008680555555555556,0,0,0.008680555555555556,21.336805555555557,0)" xlink:href="#B"/>
        <use transform="matrix(0.008680555555555556,0,0,0.008680555555555556,32.005208333333336,0)" xlink:href="#C"/>
      </g>
      <g id="u">
        <use transform="matrix(0.008680555555555556,0,0,0.008680555555555556,0,0)" xlink:href="#N"/>
        <use transform="matrix(0.008680555555555556,0,0,0.008680555555555556,10.668402777777779,0)" xlink:href="#O"/>
        <use transform="matrix(0.008680555555555556,0,0,0.008680555555555556,21.336805555555557,0)" xlink:href="#P"/>
        <use transform="matrix(0.008680555555555556,0,0,0.008680555555555556,32.005208333333336,0)" xlink:href="#Q"/>
        <use transform="matrix(0.008680555555555556,0,0,0.008680555555555556,42.673611111111114,0)" xlink:href="#A"/>
        <use transform="matrix(0.008680555555555556,0,0,0.008680555555555556,53.34201388888889,0)" xlink:href="#P"/>
        <use transform="matrix(0.008680555555555556,0,0,0.008680555555555556,64.01041666666667,0)" xlink:href="#P"/>
      </g>
      <g id="v">
        <use transform="matrix(0.008680555555555556,0,0,0.008680555555555556,0,0)" xlink:href="#I"/>
        <use transform="matrix(0.008680555555555556,0,0,0.008680555555555556,10.668402777777779,0)" xlink:href="#Q"/>
        <use transform="matrix(0.008680555555555556,0,0,0.008680555555555556,21.336805555555557,0)" xlink:href="#G"/>
        <use transform="matrix(0.008680555555555556,0,0,0.008680555555555556,32.005208333333336,0)" xlink:href="#aa"/>
        <use transform="matrix(0.008680555555555556,0,0,0.008680555555555556,42.673611111111114,0)" xlink:href="#F"/>
        <use transform="matrix(0.008680555555555556,0,0,0.008680555555555556,53.34201388888889,0)" xlink:href="#H"/>
        <use transform="matrix(0.008680555555555556,0,0,0.008680555555555556,64.01041666666667,0)" xlink:href="#X"/>
        <use transform="matrix(0.008680555555555556,0,0,0.008680555555555556,74.67881944444446,0)" xlink:href="#K"/>
      </g>
      <path fill="#333"
            d="M622-1349c296 4 497 117 497 404 0 282-193 424-485 431H353V0H162v-1349h460zm-15 684c195-3 320-88 320-277 0-184-129-255-328-254H353v531h254"
            id="ah"/>
      <path fill="#333" d="M745-142h380V0H143v-142h422v-798H246v-142h499v940zM545-1292v-192h200v192H545" id="ai"/>
      <path fill="#333"
            d="M706-1102c241 0 344 136 343 381V0H868v-695c1-168-57-273-220-268-190 6-283 138-283 336V0H185c-3-360 6-732-6-1082h170c4 54 7 126 8 185h3c63-121 164-204 346-205"
            id="aj"/>
      <path fill="#333"
            d="M1048-32c-2 300-135 456-433 456-222-1-358-88-400-267l184-25c22 99 100 157 222 156 184-2 248-125 248-315 0-64 3-133-2-194C807-100 706-13 524-12c-306 0-381-228-381-537 0-318 85-550 400-550 164 0 271 83 325 202h3c1-60 3-134 12-185h171c-13 339-4 702-6 1050zM585-145c210-8 284-178 284-406 0-192-52-331-177-392-33-16-69-22-104-22-223 2-259 184-259 414 0 229 31 415 256 406"
            id="ak"/>
      <g id="x">
        <use transform="matrix(0.0087890625,0,0,0.0087890625,0,0)" xlink:href="#ah"/>
        <use transform="matrix(0.0087890625,0,0,0.0087890625,10.8017578125,0)" xlink:href="#ai"/>
        <use transform="matrix(0.0087890625,0,0,0.0087890625,21.603515625,0)" xlink:href="#aj"/>
        <use transform="matrix(0.0087890625,0,0,0.0087890625,32.4052734375,0)" xlink:href="#ak"/>
      </g>
      <path fill="#333"
            d="M650-1214c-281 0-336 244-336 533 0 295 60 546 347 546 188 0 263-142 322-282l159 65C1058-155 935 20 659 20c-401 0-546-295-546-701 0-407 135-689 536-689 264 0 391 146 466 335l-168 65c-47-129-127-244-297-244"
            id="al"/>
      <path fill="#333"
            d="M615-1102c343 0 484 203 482 560-1 347-147 562-488 562-336 0-475-219-479-562-4-349 156-560 485-560zm-8 989c240 0 301-180 301-429 0-245-55-427-290-427-236 0-299 181-299 427 0 243 61 429 288 429"
            id="am"/>
      <path fill="#333"
            d="M904-1102c199 0 220 177 220 381V0H956v-686c-3-114 0-215-60-264-70-33-125-4-158 71-26 56-39 140-39 252V0H531v-686c-3-114-1-215-61-264-78-41-136 24-157 84-24 69-39 159-39 259V0H105c-3-360 6-732-6-1082h149c6 50 3 123 8 175 36-100 83-195 216-195 135 0 166 79 196 196 42-105 93-196 236-196"
            id="an"/>
      <path fill="#333"
            d="M698-1104c312 3 392 244 392 558 0 315-82 566-392 566-169 0-277-65-331-184h-5c8 188 2 394 4 589H185V-858c0-76-1-156-6-224h175c6 52 9 120 10 178h4c58-122 150-202 330-200zm-49 991c225 0 255-203 255-433 0-225-32-419-253-419-236 0-285 192-285 441 0 237 53 411 283 411"
            id="ao"/>
      <path fill="#333" d="M736-142h380V0H134v-142h422v-1200H267v-142h469v1342" id="ap"/>
      <path fill="#333"
            d="M617-1102c355 0 481 238 477 599H322c5 222 84 388 301 388 144 0 244-59 284-166l158 45C1002-72 854 20 623 20c-342 0-490-220-490-568 0-346 151-554 484-554zm291 461c-18-192-90-328-289-328-194 0-287 128-295 328h584"
            id="aq"/>
      <path fill="#333"
            d="M682 16c-209 0-323-80-324-285v-671H190v-142h170l58-282h120v282h432v142H538v652c2 114 60 155 182 155 106 0 209-16 297-34v137C921-4 806 16 682 16"
            id="ar"/>
      <g id="y">
        <use transform="matrix(0.0087890625,0,0,0.0087890625,0,0)" xlink:href="#al"/>
        <use transform="matrix(0.0087890625,0,0,0.0087890625,10.8017578125,0)" xlink:href="#am"/>
        <use transform="matrix(0.0087890625,0,0,0.0087890625,21.603515625,0)" xlink:href="#an"/>
        <use transform="matrix(0.0087890625,0,0,0.0087890625,32.4052734375,0)" xlink:href="#ao"/>
        <use transform="matrix(0.0087890625,0,0,0.0087890625,43.20703125,0)" xlink:href="#ap"/>
        <use transform="matrix(0.0087890625,0,0,0.0087890625,54.0087890625,0)" xlink:href="#aq"/>
        <use transform="matrix(0.0087890625,0,0,0.0087890625,64.810546875,0)" xlink:href="#ar"/>
        <use transform="matrix(0.0087890625,0,0,0.0087890625,75.6123046875,0)" xlink:href="#aq"/>
      </g>
    </defs>
  </g>
</svg>
