<?xml version="1.0" encoding="UTF-8" standalone="no"?>
<!DOCTYPE svg PUBLIC "-//W3C//DTD SVG 1.1//EN"
 "http://www.w3.org/Graphics/SVG/1.1/DTD/svg11.dtd">
<!-- Generated by graphviz version 2.40.1 (20161225.0304)
 -->
<!-- Title: G Pages: 1 -->
<svg width="356pt" height="33pt"
 viewBox="0.00 0.00 356.17 32.80" xmlns="http://www.w3.org/2000/svg" xmlns:xlink="http://www.w3.org/1999/xlink">
<g id="graph0" class="graph" transform="scale(1 1) rotate(0) translate(4 28.8)">
<title>G</title>
<polygon fill="#ffffff" stroke="transparent" points="-4,4 -4,-28.8 352.1746,-28.8 352.1746,4 -4,4"/>
<!-- s -->
<g id="node1" class="node">
<title>s</title>
<polygon fill="#d3d3d3" stroke="#d3d3d3" points="61.1915,-24.7008 -.0639,-24.7008 -.0639,-.0992 61.1915,-.0992 61.1915,-24.7008"/>
<text text-anchor="middle" x="30.5638" y="-8.2" font-family="Helvetica,sans-Serif" font-size="14.00" fill="#000000">Sender</text>
</g>
<!-- c1 -->
<g id="node3" class="node">
<title>c1</title>
<polygon fill="#d3d3d3" stroke="#d3d3d3" points="159.6357,-24.7008 79.4919,-24.7008 79.4919,-.0992 159.6357,-.0992 159.6357,-24.7008"/>
<text text-anchor="middle" x="119.5638" y="-8.2" font-family="Helvetica,sans-Serif" font-size="14.00" fill="#000000">Connector</text>
</g>
<!-- s&#45;&#45;c1 -->
<g id="edge1" class="edge">
<title>s:e&#45;&#45;c1:w</title>
<path fill="none" stroke="#000000" d="M61.1276,-12.4C69.3215,-12.4 71.3699,-12.4 79.5638,-12.4"/>
</g>
<!-- r -->
<g id="node2" class="node">
<title>r</title>
<polygon fill="#d3d3d3" stroke="#d3d3d3" points="348.2857,-24.7008 276.8419,-24.7008 276.8419,-.0992 348.2857,-.0992 348.2857,-24.7008"/>
<text text-anchor="middle" x="312.5638" y="-8.2" font-family="Helvetica,sans-Serif" font-size="14.00" fill="#000000">Receiver</text>
</g>
<!-- c2 -->
<g id="node4" class="node">
<title>c2</title>
<polygon fill="#d3d3d3" stroke="#d3d3d3" points="258.6357,-24.7008 178.4919,-24.7008 178.4919,-.0992 258.6357,-.0992 258.6357,-24.7008"/>
<text text-anchor="middle" x="218.5638" y="-8.2" font-family="Helvetica,sans-Serif" font-size="14.00" fill="#000000">Connector</text>
</g>
<!-- c1&#45;&#45;c2 -->
<g id="edge2" class="edge">
<title>c1:e&#45;&#45;c2:w</title>
<path fill="none" stroke="#000000" d="M159.5638,-12.4C168.0082,-12.4 170.1194,-12.4 178.5638,-12.4"/>
</g>
<!-- c2&#45;&#45;r -->
<g id="edge3" class="edge">
<title>c2:e&#45;&#45;r:w</title>
<path fill="none" stroke="#000000" d="M258.5638,-12.4C266.7368,-12.4 268.78,-12.4 276.953,-12.4"/>
</g>
</g>
</svg>
