<?xml version="1.0" encoding="UTF-8" standalone="no"?>
<!DOCTYPE svg PUBLIC "-//W3C//DTD SVG 1.1//EN"
 "http://www.w3.org/Graphics/SVG/1.1/DTD/svg11.dtd">
<!-- Generated by graphviz version 2.40.1 (20161225.0304)
 -->
<!-- Title: G Pages: 1 -->
<svg width="414pt" height="94pt"
 viewBox="0.00 0.00 414.17 93.60" xmlns="http://www.w3.org/2000/svg" xmlns:xlink="http://www.w3.org/1999/xlink">
<g id="graph0" class="graph" transform="scale(1 1) rotate(0) translate(4 89.6)">
<title>G</title>
<polygon fill="#ffffff" stroke="transparent" points="-4,4 -4,-89.6 410.1746,-89.6 410.1746,4 -4,4"/>
<!-- s -->
<g id="node1" class="node">
<title>s</title>
<polygon fill="#d3d3d3" stroke="#d3d3d3" points="61.1915,-85.5008 -.0639,-85.5008 -.0639,-60.8992 61.1915,-60.8992 61.1915,-85.5008"/>
<text text-anchor="middle" x="30.5638" y="-69" font-family="Helvetica,sans-Serif" font-size="14.00" fill="#000000">Sender</text>
</g>
<!-- l1 -->
<g id="node5" class="node">
<title>l1</title>
<polygon fill="none" stroke="#000000" points="90.1389,-24.7008 30.9887,-24.7008 30.9887,-.0992 90.1389,-.0992 90.1389,-24.7008"/>
<text text-anchor="middle" x="60.5638" y="-8.2" font-family="Helvetica,sans-Serif" font-size="14.00" fill="#000000">Ledger</text>
</g>
<!-- s&#45;&#45;l1 -->
<g id="edge1" class="edge">
<title>s:s&#45;&#45;l1:nw</title>
<path fill="none" stroke="#000000" d="M30.5638,-61.2C30.5638,-44.8444 18.9987,-35.9651 30.5638,-24.4"/>
</g>
<!-- r -->
<g id="node2" class="node">
<title>r</title>
<polygon fill="#d3d3d3" stroke="#d3d3d3" points="406.2857,-85.5008 334.8419,-85.5008 334.8419,-60.8992 406.2857,-60.8992 406.2857,-85.5008"/>
<text text-anchor="middle" x="370.5638" y="-69" font-family="Helvetica,sans-Serif" font-size="14.00" fill="#000000">Receiver</text>
</g>
<!-- l3 -->
<g id="node7" class="node">
<title>l3</title>
<polygon fill="none" stroke="#000000" points="370.1389,-24.7008 310.9887,-24.7008 310.9887,-.0992 370.1389,-.0992 370.1389,-24.7008"/>
<text text-anchor="middle" x="340.5638" y="-8.2" font-family="Helvetica,sans-Serif" font-size="14.00" fill="#000000">Ledger</text>
</g>
<!-- r&#45;&#45;l3 -->
<g id="edge6" class="edge">
<title>r:s&#45;&#45;l3:ne</title>
<path fill="none" stroke="#000000" d="M370.5638,-61.2C370.5638,-44.8444 382.1289,-35.9651 370.5638,-24.4"/>
</g>
<!-- c1 -->
<g id="node3" class="node">
<title>c1</title>
<polygon fill="#d3d3d3" stroke="#d3d3d3" points="170.6357,-85.5008 90.4919,-85.5008 90.4919,-60.8992 170.6357,-60.8992 170.6357,-85.5008"/>
<text text-anchor="middle" x="130.5638" y="-69" font-family="Helvetica,sans-Serif" font-size="14.00" fill="#000000">Connector</text>
</g>
<!-- c1&#45;&#45;l1 -->
<g id="edge2" class="edge">
<title>c1:sw&#45;&#45;l1:ne</title>
<path fill="none" stroke="#000000" d="M90.5638,-61.2C78.9987,-49.6349 102.1289,-35.9651 90.5638,-24.4"/>
</g>
<!-- l2 -->
<g id="node6" class="node">
<title>l2</title>
<polygon fill="none" stroke="#000000" points="230.1389,-24.7008 170.9887,-24.7008 170.9887,-.0992 230.1389,-.0992 230.1389,-24.7008"/>
<text text-anchor="middle" x="200.5638" y="-8.2" font-family="Helvetica,sans-Serif" font-size="14.00" fill="#000000">Ledger</text>
</g>
<!-- c1&#45;&#45;l2 -->
<g id="edge3" class="edge">
<title>c1:se&#45;&#45;l2:nw</title>
<path fill="none" stroke="#000000" d="M170.5638,-61.2C182.1289,-49.6349 158.9987,-35.9651 170.5638,-24.4"/>
</g>
<!-- c2 -->
<g id="node4" class="node">
<title>c2</title>
<polygon fill="#d3d3d3" stroke="#d3d3d3" points="310.6357,-85.5008 230.4919,-85.5008 230.4919,-60.8992 310.6357,-60.8992 310.6357,-85.5008"/>
<text text-anchor="middle" x="270.5638" y="-69" font-family="Helvetica,sans-Serif" font-size="14.00" fill="#000000">Connector</text>
</g>
<!-- c2&#45;&#45;l2 -->
<g id="edge4" class="edge">
<title>c2:sw&#45;&#45;l2:ne</title>
<path fill="none" stroke="#000000" d="M230.5638,-61.2C218.9987,-49.6349 242.1289,-35.9651 230.5638,-24.4"/>
</g>
<!-- c2&#45;&#45;l3 -->
<g id="edge5" class="edge">
<title>c2:se&#45;&#45;l3:nw</title>
<path fill="none" stroke="#000000" d="M310.5638,-61.2C322.1289,-49.6349 298.9987,-35.9651 310.5638,-24.4"/>
</g>
</g>
</svg>
