<?xml version="1.0" encoding="UTF-8" standalone="no"?>
<!DOCTYPE svg PUBLIC "-//W3C//DTD SVG 1.1//EN"
 "http://www.w3.org/Graphics/SVG/1.1/DTD/svg11.dtd">
<!-- Generated by graphviz version 2.40.1 (20161225.0304)
 -->
<!-- Title: G Pages: 1 -->
<svg width="580pt" height="132pt"
 viewBox="0.00 0.00 580.00 131.63" xmlns="http://www.w3.org/2000/svg" xmlns:xlink="http://www.w3.org/1999/xlink">
<g id="graph0" class="graph" transform="scale(1 1) rotate(0) translate(4 127.629)">
<title>G</title>
<polygon fill="#ffffff" stroke="transparent" points="-4,4 -4,-127.629 576,-127.629 576,4 -4,4"/>
<!-- s -->
<g id="node1" class="node">
<title>s</title>
<polygon fill="#d3d3d3" stroke="#d3d3d3" points="108,-80.129 0,-80.129 0,-57.129 108,-57.129 108,-80.129"/>
<text text-anchor="middle" x="54" y="-64.929" font-family="Helvetica,sans-Serif" font-size="14.00" fill="#000000">Sender</text>
</g>
<!-- c1 -->
<g id="node3" class="node">
<title>c1</title>
<polygon fill="#d3d3d3" stroke="#d3d3d3" points="277,-80.129 169,-80.129 169,-57.129 277,-57.129 277,-80.129"/>
<text text-anchor="middle" x="223" y="-64.929" font-family="Helvetica,sans-Serif" font-size="14.00" fill="#000000">Connector</text>
</g>
<!-- s&#45;&gt;c1 -->
<g id="edge1" class="edge">
<title>s:n&#45;&gt;c1:n</title>
<path fill="none" stroke="#000000" stroke-dasharray="1,5" d="M54,-80.629C54,-114.6638 192.7979,-117.8545 218.8224,-90.2013"/>
<polygon fill="#000000" stroke="#000000" points="222.2079,-91.1942 223,-80.629 215.7922,-88.3942 222.2079,-91.1942"/>
<text text-anchor="middle" x="139" y="-112.429" font-family="Times,serif" font-size="14.00" fill="#000000">Prepare</text>
</g>
<!-- r -->
<g id="node2" class="node">
<title>r</title>
<polygon fill="#d3d3d3" stroke="#d3d3d3" points="572,-80.129 464,-80.129 464,-57.129 572,-57.129 572,-80.129"/>
<text text-anchor="middle" x="518" y="-64.929" font-family="Helvetica,sans-Serif" font-size="14.00" fill="#000000">Receiver</text>
</g>
<!-- c1&#45;&gt;s -->
<g id="edge4" class="edge">
<title>c1:s&#45;&gt;s:s</title>
<path fill="none" stroke="#ff0000" d="M223,-56.629C223,14.9612 69.4724,18.317 55.0792,-46.5616"/>
<polygon fill="#ff0000" stroke="#ff0000" points="51.5859,-46.3129 54,-56.629 58.546,-47.0591 51.5859,-46.3129"/>
<text text-anchor="middle" x="139" y="-6.429" font-family="Times,serif" font-size="14.00" fill="#000000">Reject</text>
</g>
<!-- c2 -->
<g id="node4" class="node">
<title>c2</title>
<polygon fill="#d3d3d3" stroke="#d3d3d3" points="446,-80.129 338,-80.129 338,-57.129 446,-57.129 446,-80.129"/>
<text text-anchor="middle" x="392" y="-64.929" font-family="Helvetica,sans-Serif" font-size="14.00" fill="#000000">Connector</text>
</g>
<!-- c1&#45;&gt;c2 -->
<g id="edge2" class="edge">
<title>c1:n&#45;&gt;c2:n</title>
<path fill="none" stroke="#000000" stroke-dasharray="1,5" d="M223,-80.629C223,-114.6638 361.7979,-117.8545 387.8224,-90.2013"/>
<polygon fill="#000000" stroke="#000000" points="391.2079,-91.1942 392,-80.629 384.7922,-88.3942 391.2079,-91.1942"/>
<text text-anchor="middle" x="308" y="-112.429" font-family="Times,serif" font-size="14.00" fill="#000000">Prepare</text>
</g>
<!-- c2&#45;&gt;c1 -->
<g id="edge3" class="edge">
<title>c2:s&#45;&gt;c1:s</title>
<path fill="none" stroke="#ff0000" d="M392,-56.629C392,14.9612 238.4724,18.317 224.0792,-46.5616"/>
<polygon fill="#ff0000" stroke="#ff0000" points="220.5859,-46.3129 223,-56.629 227.546,-47.0591 220.5859,-46.3129"/>
<text text-anchor="middle" x="308" y="-6.429" font-family="Times,serif" font-size="14.00" fill="#000000">Reject</text>
</g>
</g>
</svg>
