<?xml version="1.0" encoding="UTF-8" standalone="no"?>
<!DOCTYPE svg PUBLIC "-//W3C//DTD SVG 1.1//EN"
 "http://www.w3.org/Graphics/SVG/1.1/DTD/svg11.dtd">
<!-- Generated by graphviz version 2.40.1 (20161225.0304)
 -->
<!-- Title: G Pages: 1 -->
<svg width="729pt" height="338pt"
 viewBox="0.00 0.00 729.00 337.60" xmlns="http://www.w3.org/2000/svg" xmlns:xlink="http://www.w3.org/1999/xlink">
<g id="graph0" class="graph" transform="scale(1 1) rotate(0) translate(4 333.6)">
<title>G</title>
<polygon fill="#ffffff" stroke="transparent" points="-4,4 -4,-333.6 725,-333.6 725,4 -4,4"/>
<g id="clust1" class="cluster">
<title>cluster_labels</title>
</g>
<g id="clust2" class="cluster">
<title>cluster_0</title>
<polygon fill="#d3d3d3" stroke="#d3d3d3" points="140,-68.8 140,-321.6 230,-321.6 230,-68.8 140,-68.8"/>
<text text-anchor="middle" x="185" y="-305" font-family="Helvetica,sans-Serif" font-size="14.00" fill="#000000">Sender</text>
</g>
<g id="clust3" class="cluster">
<title>cluster_1</title>
<polygon fill="#d3d3d3" stroke="#d3d3d3" points="238,-68.8 238,-195.2 420,-195.2 420,-68.8 238,-68.8"/>
<text text-anchor="middle" x="329" y="-178.6" font-family="Helvetica,sans-Serif" font-size="14.00" fill="#000000">Connector</text>
</g>
<g id="clust4" class="cluster">
<title>cluster_2</title>
<polygon fill="none" stroke="#000000" stroke-width="1.5" stroke-dasharray="1,5" points="428,-68.8 428,-195.2 613,-195.2 613,-68.8 428,-68.8"/>
<text text-anchor="middle" x="520.5" y="-178.6" font-family="Helvetica,sans-Serif" font-size="14.00" fill="#000000">Connector (N&#45;1 Instances)</text>
</g>
<g id="clust5" class="cluster">
<title>cluster_3</title>
<polygon fill="#d3d3d3" stroke="#d3d3d3" points="621,-68.8 621,-321.6 713,-321.6 713,-68.8 621,-68.8"/>
<text text-anchor="middle" x="667" y="-305" font-family="Helvetica,sans-Serif" font-size="14.00" fill="#000000">Receiver</text>
</g>
<!-- app -->
<g id="node1" class="node">
<title>app</title>
<text text-anchor="start" x="24" y="-272.2" font-family="Helvetica,sans-Serif" font-size="14.00" fill="#000000">Application</text>
</g>
<!-- transport -->
<g id="node2" class="node">
<title>transport</title>
<text text-anchor="start" x="24" y="-211.4" font-family="Helvetica,sans-Serif" font-size="14.00" fill="#000000">Transport</text>
</g>
<!-- interledger -->
<g id="node3" class="node">
<title>interledger</title>
<text text-anchor="start" x="24" y="-145.8" font-family="Helvetica,sans-Serif" font-size="14.00" fill="#000000">Interledger</text>
</g>
<!-- clearing -->
<g id="node4" class="node">
<title>clearing</title>
<text text-anchor="start" x="24" y="-85" font-family="Helvetica,sans-Serif" font-size="14.00" fill="#000000">Clearing</text>
</g>
<!-- settlement -->
<g id="node5" class="node">
<title>settlement</title>
<text text-anchor="start" x="24" y="-24.2" font-family="Helvetica,sans-Serif" font-size="14.00" fill="#000000">Settlement</text>
</g>
<!-- app1 -->
<g id="node6" class="node">
<title>app1</title>
<polygon fill="#ffffff" stroke="#ffffff" points="212,-288.7008 158,-288.7008 158,-264.0992 212,-264.0992 212,-288.7008"/>
<text text-anchor="middle" x="185" y="-272.2" font-family="Helvetica,sans-Serif" font-size="14.00" fill="#000000">SPSP</text>
</g>
<!-- tr1 -->
<g id="node7" class="node">
<title>tr1</title>
<polygon fill="#ffffff" stroke="#ffffff" points="212,-227.9008 158,-227.9008 158,-203.2992 212,-203.2992 212,-227.9008"/>
<text text-anchor="middle" x="185" y="-211.4" font-family="Helvetica,sans-Serif" font-size="14.00" fill="#000000">PSK</text>
</g>
<!-- app1&#45;&#45;tr1 -->
<g id="edge1" class="edge">
<title>app1&#45;&#45;tr1</title>
<path fill="none" stroke="#000000" d="M185,-264.0962C185,-253.6865 185,-238.8258 185,-228.304"/>
</g>
<!-- im1 -->
<g id="node8" class="node">
<title>im1</title>
<polygon fill="#ffffff" stroke="#ffffff" points="212,-162.3008 158,-162.3008 158,-137.6992 212,-137.6992 212,-162.3008"/>
<text text-anchor="middle" x="185" y="-145.8" font-family="Helvetica,sans-Serif" font-size="14.00" fill="#000000">ILP</text>
</g>
<!-- tr1&#45;&#45;im1 -->
<g id="edge2" class="edge">
<title>tr1&#45;&#45;im1</title>
<path fill="none" stroke="#000000" d="M185,-203.2611C185,-191.6814 185,-174.4366 185,-162.731"/>
</g>
<!-- lli1 -->
<g id="node9" class="node">
<title>lli1</title>
<polygon fill="#ffffff" stroke="#ffffff" points="222.3542,-101.5008 147.6458,-101.5008 147.6458,-76.8992 222.3542,-76.8992 222.3542,-101.5008"/>
<text text-anchor="middle" x="185" y="-85" font-family="Helvetica,sans-Serif" font-size="14.00" fill="#000000">L1 Plugin</text>
</g>
<!-- im1&#45;&#45;lli1 -->
<g id="edge3" class="edge">
<title>im1&#45;&#45;lli1</title>
<path fill="none" stroke="#000000" d="M185,-137.6962C185,-127.2865 185,-112.4258 185,-101.904"/>
</g>
<!-- l1 -->
<g id="node20" class="node">
<title>l1</title>
<polygon fill="none" stroke="#000000" points="269.7472,-40.7008 198.2528,-40.7008 198.2528,-16.0992 269.7472,-16.0992 269.7472,-40.7008"/>
<text text-anchor="middle" x="234" y="-24.2" font-family="Helvetica,sans-Serif" font-size="14.00" fill="#000000">Ledger 1</text>
</g>
<!-- lli1&#45;&#45;l1 -->
<g id="edge11" class="edge">
<title>lli1:s&#45;&#45;l1:nw</title>
<path fill="none" stroke="#000000" d="M185,-77.2C185,-59.8539 185.7345,-52.6655 198,-40.4"/>
</g>
<!-- im2 -->
<g id="node10" class="node">
<title>im2</title>
<polygon fill="#ffffff" stroke="#ffffff" points="356,-162.3008 302,-162.3008 302,-137.6992 356,-137.6992 356,-162.3008"/>
<text text-anchor="middle" x="329" y="-145.8" font-family="Helvetica,sans-Serif" font-size="14.00" fill="#000000">ILP</text>
</g>
<!-- lli2 -->
<g id="node11" class="node">
<title>lli2</title>
<polygon fill="#ffffff" stroke="#ffffff" points="320.3542,-101.5008 245.6458,-101.5008 245.6458,-76.8992 320.3542,-76.8992 320.3542,-101.5008"/>
<text text-anchor="middle" x="283" y="-85" font-family="Helvetica,sans-Serif" font-size="14.00" fill="#000000">L1 Plugin</text>
</g>
<!-- im2&#45;&#45;lli2 -->
<g id="edge4" class="edge">
<title>im2:sw&#45;&#45;lli2:n</title>
<path fill="none" stroke="#000000" d="M302,-138C288.9844,-124.9844 283,-119.6069 283,-101.2"/>
</g>
<!-- lli3 -->
<g id="node12" class="node">
<title>lli3</title>
<polygon fill="#ffffff" stroke="#ffffff" points="412.3542,-101.5008 337.6458,-101.5008 337.6458,-76.8992 412.3542,-76.8992 412.3542,-101.5008"/>
<text text-anchor="middle" x="375" y="-85" font-family="Helvetica,sans-Serif" font-size="14.00" fill="#000000">L2 Plugin</text>
</g>
<!-- im2&#45;&#45;lli3 -->
<g id="edge5" class="edge">
<title>im2:se&#45;&#45;lli3:n</title>
<path fill="none" stroke="#000000" d="M356,-138C369.0156,-124.9844 375,-119.6069 375,-101.2"/>
</g>
<!-- lli2&#45;&#45;l1 -->
<g id="edge12" class="edge">
<title>lli2:s&#45;&#45;l1:ne</title>
<path fill="none" stroke="#000000" d="M283,-77.2C283,-59.8539 282.2655,-52.6655 270,-40.4"/>
</g>
<!-- l2 -->
<g id="node21" class="node">
<title>l2</title>
<polygon fill="none" stroke="#000000" points="459.7472,-40.7008 388.2528,-40.7008 388.2528,-16.0992 459.7472,-16.0992 459.7472,-40.7008"/>
<text text-anchor="middle" x="424" y="-24.2" font-family="Helvetica,sans-Serif" font-size="14.00" fill="#000000">Ledger 2</text>
</g>
<!-- lli3&#45;&#45;l2 -->
<g id="edge13" class="edge">
<title>lli3:s&#45;&#45;l2:nw</title>
<path fill="none" stroke="#000000" d="M375,-77.2C375,-59.8539 375.7345,-52.6655 388,-40.4"/>
</g>
<!-- im3 -->
<g id="node13" class="node">
<title>im3</title>
<polygon fill="none" stroke="#000000" stroke-dasharray="1,5" points="547,-162.3008 493,-162.3008 493,-137.6992 547,-137.6992 547,-162.3008"/>
<text text-anchor="middle" x="520" y="-145.8" font-family="Helvetica,sans-Serif" font-size="14.00" fill="#000000">ILP</text>
</g>
<!-- lli4 -->
<g id="node14" class="node">
<title>lli4</title>
<polygon fill="none" stroke="#000000" stroke-dasharray="1,5" points="510.3542,-101.5008 435.6458,-101.5008 435.6458,-76.8992 510.3542,-76.8992 510.3542,-101.5008"/>
<text text-anchor="middle" x="473" y="-85" font-family="Helvetica,sans-Serif" font-size="14.00" fill="#000000">L2 Plugin</text>
</g>
<!-- im3&#45;&#45;lli4 -->
<g id="edge6" class="edge">
<title>im3:sw&#45;&#45;lli4:n</title>
<path fill="none" stroke="#000000" stroke-dasharray="1,5" d="M493,-138C479.8372,-124.8372 473,-119.815 473,-101.2"/>
</g>
<!-- lli5 -->
<g id="node15" class="node">
<title>lli5</title>
<polygon fill="none" stroke="#000000" stroke-dasharray="1,5" points="605.1781,-101.5008 528.8219,-101.5008 528.8219,-76.8992 605.1781,-76.8992 605.1781,-101.5008"/>
<text text-anchor="middle" x="567" y="-85" font-family="Helvetica,sans-Serif" font-size="14.00" fill="#000000">LN Plugin</text>
</g>
<!-- im3&#45;&#45;lli5 -->
<g id="edge7" class="edge">
<title>im3:se&#45;&#45;lli5:n</title>
<path fill="none" stroke="#000000" stroke-dasharray="1,5" d="M547,-138C560.1628,-124.8372 567,-119.815 567,-101.2"/>
</g>
<!-- lli4&#45;&#45;l2 -->
<g id="edge14" class="edge">
<title>lli4:s&#45;&#45;l2:ne</title>
<path fill="none" stroke="#000000" stroke-dasharray="1,5" d="M473,-77.2C473,-59.8539 472.2655,-52.6655 460,-40.4"/>
</g>
<!-- l3 -->
<g id="node22" class="node">
<title>l3</title>
<polygon fill="none" stroke="#000000" stroke-dasharray="1,5" points="653.572,-40.7008 580.428,-40.7008 580.428,-16.0992 653.572,-16.0992 653.572,-40.7008"/>
<text text-anchor="middle" x="617" y="-24.2" font-family="Helvetica,sans-Serif" font-size="14.00" fill="#000000">Ledger N</text>
</g>
<!-- lli5&#45;&#45;l3 -->
<g id="edge15" class="edge">
<title>lli5:s&#45;&#45;l3:nw</title>
<path fill="none" stroke="#000000" stroke-dasharray="1,5" d="M567,-77.2C567,-59.8539 567.7345,-52.6655 580,-40.4"/>
</g>
<!-- app2 -->
<g id="node16" class="node">
<title>app2</title>
<polygon fill="#ffffff" stroke="#ffffff" points="694,-288.7008 640,-288.7008 640,-264.0992 694,-264.0992 694,-288.7008"/>
<text text-anchor="middle" x="667" y="-272.2" font-family="Helvetica,sans-Serif" font-size="14.00" fill="#000000">SPSP</text>
</g>
<!-- tr2 -->
<g id="node17" class="node">
<title>tr2</title>
<polygon fill="#ffffff" stroke="#ffffff" points="694,-227.9008 640,-227.9008 640,-203.2992 694,-203.2992 694,-227.9008"/>
<text text-anchor="middle" x="667" y="-211.4" font-family="Helvetica,sans-Serif" font-size="14.00" fill="#000000">PSK</text>
</g>
<!-- app2&#45;&#45;tr2 -->
<g id="edge8" class="edge">
<title>app2&#45;&#45;tr2</title>
<path fill="none" stroke="#000000" d="M667,-264.0962C667,-253.6865 667,-238.8258 667,-228.304"/>
</g>
<!-- im4 -->
<g id="node18" class="node">
<title>im4</title>
<polygon fill="#ffffff" stroke="#ffffff" points="694,-162.3008 640,-162.3008 640,-137.6992 694,-137.6992 694,-162.3008"/>
<text text-anchor="middle" x="667" y="-145.8" font-family="Helvetica,sans-Serif" font-size="14.00" fill="#000000">ILP</text>
</g>
<!-- tr2&#45;&#45;im4 -->
<g id="edge9" class="edge">
<title>tr2&#45;&#45;im4</title>
<path fill="none" stroke="#000000" d="M667,-203.2611C667,-191.6814 667,-174.4366 667,-162.731"/>
</g>
<!-- lli6 -->
<g id="node19" class="node">
<title>lli6</title>
<polygon fill="#ffffff" stroke="#ffffff" points="705.1781,-101.5008 628.8219,-101.5008 628.8219,-76.8992 705.1781,-76.8992 705.1781,-101.5008"/>
<text text-anchor="middle" x="667" y="-85" font-family="Helvetica,sans-Serif" font-size="14.00" fill="#000000">LN Plugin</text>
</g>
<!-- im4&#45;&#45;lli6 -->
<g id="edge10" class="edge">
<title>im4&#45;&#45;lli6</title>
<path fill="none" stroke="#000000" d="M667,-137.6962C667,-127.2865 667,-112.4258 667,-101.904"/>
</g>
<!-- lli6&#45;&#45;l3 -->
<g id="edge16" class="edge">
<title>lli6:s&#45;&#45;l3:ne</title>
<path fill="none" stroke="#000000" stroke-dasharray="1,5" d="M667,-77.2C667,-59.8539 666.2655,-52.6655 654,-40.4"/>
</g>
</g>
</svg>
