<?xml version="1.0" encoding="UTF-8" standalone="no"?>
<!DOCTYPE svg PUBLIC "-//W3C//DTD SVG 1.1//EN"
 "http://www.w3.org/Graphics/SVG/1.1/DTD/svg11.dtd">
<!-- Generated by graphviz version 2.40.1 (20161225.0304)
 -->
<!-- Title: G Pages: 1 -->
<svg width="707pt" height="322pt"
 viewBox="0.00 0.00 707.00 321.60" xmlns="http://www.w3.org/2000/svg" xmlns:xlink="http://www.w3.org/1999/xlink">
<g id="graph0" class="graph" transform="scale(1 1) rotate(0) translate(4 317.6)">
<title>G</title>
<polygon fill="#ffffff" stroke="transparent" points="-4,4 -4,-317.6 703,-317.6 703,4 -4,4"/>
<g id="clust1" class="cluster">
<title>cluster_0</title>
<polygon fill="#d3d3d3" stroke="#d3d3d3" points="118,-52.8 118,-305.6 208,-305.6 208,-52.8 118,-52.8"/>
<text text-anchor="middle" x="163" y="-289" font-family="Helvetica,sans-Serif" font-size="14.00" fill="#000000">Sender</text>
</g>
<g id="clust2" class="cluster">
<title>cluster_1</title>
<polygon fill="#d3d3d3" stroke="#d3d3d3" points="216,-52.8 216,-179.2 398,-179.2 398,-52.8 216,-52.8"/>
<text text-anchor="middle" x="307" y="-162.6" font-family="Helvetica,sans-Serif" font-size="14.00" fill="#000000">Connector</text>
</g>
<g id="clust3" class="cluster">
<title>cluster_2</title>
<polygon fill="none" stroke="#000000" stroke-width="1.5" stroke-dasharray="1,5" points="406,-52.8 406,-179.2 591,-179.2 591,-52.8 406,-52.8"/>
<text text-anchor="middle" x="498.5" y="-162.6" font-family="Helvetica,sans-Serif" font-size="14.00" fill="#000000">Connector (N&#45;1 Instances)</text>
</g>
<g id="clust4" class="cluster">
<title>cluster_3</title>
<polygon fill="#d3d3d3" stroke="#d3d3d3" points="599,-52.8 599,-305.6 691,-305.6 691,-52.8 599,-52.8"/>
<text text-anchor="middle" x="645" y="-289" font-family="Helvetica,sans-Serif" font-size="14.00" fill="#000000">Receiver</text>
</g>
<!-- app -->
<g id="node1" class="node">
<title>app</title>
<text text-anchor="start" x="10" y="-256.2" font-family="Helvetica,sans-Serif" font-size="14.00" fill="#000000">Application</text>
</g>
<!-- transport -->
<g id="node2" class="node">
<title>transport</title>
<text text-anchor="start" x="10" y="-195.4" font-family="Helvetica,sans-Serif" font-size="14.00" fill="#000000">Transport</text>
</g>
<!-- interledger -->
<g id="node3" class="node">
<title>interledger</title>
<text text-anchor="start" x="10" y="-129.8" font-family="Helvetica,sans-Serif" font-size="14.00" fill="#000000">Interledger</text>
</g>
<!-- ledger -->
<g id="node4" class="node">
<title>ledger</title>
<text text-anchor="start" x="8" y="-69" font-family="Helvetica,sans-Serif" font-size="14.00" fill="#000000">Ledger</text>
</g>
<!-- app1 -->
<g id="node5" class="node">
<title>app1</title>
<polygon fill="#ffffff" stroke="#ffffff" points="190,-272.7008 136,-272.7008 136,-248.0992 190,-248.0992 190,-272.7008"/>
<text text-anchor="middle" x="163" y="-256.2" font-family="Helvetica,sans-Serif" font-size="14.00" fill="#000000">SPSP</text>
</g>
<!-- tr1 -->
<g id="node6" class="node">
<title>tr1</title>
<polygon fill="#ffffff" stroke="#ffffff" points="190,-211.9008 136,-211.9008 136,-187.2992 190,-187.2992 190,-211.9008"/>
<text text-anchor="middle" x="163" y="-195.4" font-family="Helvetica,sans-Serif" font-size="14.00" fill="#000000">PSK</text>
</g>
<!-- app1&#45;&#45;tr1 -->
<g id="edge1" class="edge">
<title>app1&#45;&#45;tr1</title>
<path fill="none" stroke="#000000" d="M163,-248.0962C163,-237.6865 163,-222.8258 163,-212.304"/>
</g>
<!-- im1 -->
<g id="node7" class="node">
<title>im1</title>
<polygon fill="#ffffff" stroke="#ffffff" points="190,-146.3008 136,-146.3008 136,-121.6992 190,-121.6992 190,-146.3008"/>
<text text-anchor="middle" x="163" y="-129.8" font-family="Helvetica,sans-Serif" font-size="14.00" fill="#000000">ILP</text>
</g>
<!-- tr1&#45;&#45;im1 -->
<g id="edge2" class="edge">
<title>tr1&#45;&#45;im1</title>
<path fill="none" stroke="#000000" d="M163,-187.2611C163,-175.6814 163,-158.4366 163,-146.731"/>
</g>
<!-- lli1 -->
<g id="node8" class="node">
<title>lli1</title>
<polygon fill="#ffffff" stroke="#ffffff" points="200.3542,-85.5008 125.6458,-85.5008 125.6458,-60.8992 200.3542,-60.8992 200.3542,-85.5008"/>
<text text-anchor="middle" x="163" y="-69" font-family="Helvetica,sans-Serif" font-size="14.00" fill="#000000">L1 Plugin</text>
</g>
<!-- im1&#45;&#45;lli1 -->
<g id="edge3" class="edge">
<title>im1&#45;&#45;lli1</title>
<path fill="none" stroke="#000000" d="M163,-121.6962C163,-111.2865 163,-96.4258 163,-85.904"/>
</g>
<!-- l1 -->
<g id="node19" class="node">
<title>l1</title>
<polygon fill="none" stroke="#000000" points="247.7472,-24.7008 176.2528,-24.7008 176.2528,-.0992 247.7472,-.0992 247.7472,-24.7008"/>
<text text-anchor="middle" x="212" y="-8.2" font-family="Helvetica,sans-Serif" font-size="14.00" fill="#000000">Ledger 1</text>
</g>
<!-- lli1&#45;&#45;l1 -->
<g id="edge11" class="edge">
<title>lli1:s&#45;&#45;l1:nw</title>
<path fill="none" stroke="#000000" d="M163,-61.2C163,-43.8539 163.7345,-36.6655 176,-24.4"/>
</g>
<!-- im2 -->
<g id="node9" class="node">
<title>im2</title>
<polygon fill="#ffffff" stroke="#ffffff" points="334,-146.3008 280,-146.3008 280,-121.6992 334,-121.6992 334,-146.3008"/>
<text text-anchor="middle" x="307" y="-129.8" font-family="Helvetica,sans-Serif" font-size="14.00" fill="#000000">ILP</text>
</g>
<!-- lli2 -->
<g id="node10" class="node">
<title>lli2</title>
<polygon fill="#ffffff" stroke="#ffffff" points="298.3542,-85.5008 223.6458,-85.5008 223.6458,-60.8992 298.3542,-60.8992 298.3542,-85.5008"/>
<text text-anchor="middle" x="261" y="-69" font-family="Helvetica,sans-Serif" font-size="14.00" fill="#000000">L1 Plugin</text>
</g>
<!-- im2&#45;&#45;lli2 -->
<g id="edge4" class="edge">
<title>im2:sw&#45;&#45;lli2:n</title>
<path fill="none" stroke="#000000" d="M280,-122C266.9844,-108.9844 261,-103.6069 261,-85.2"/>
</g>
<!-- lli3 -->
<g id="node11" class="node">
<title>lli3</title>
<polygon fill="#ffffff" stroke="#ffffff" points="390.3542,-85.5008 315.6458,-85.5008 315.6458,-60.8992 390.3542,-60.8992 390.3542,-85.5008"/>
<text text-anchor="middle" x="353" y="-69" font-family="Helvetica,sans-Serif" font-size="14.00" fill="#000000">L2 Plugin</text>
</g>
<!-- im2&#45;&#45;lli3 -->
<g id="edge5" class="edge">
<title>im2:se&#45;&#45;lli3:n</title>
<path fill="none" stroke="#000000" d="M334,-122C347.0156,-108.9844 353,-103.6069 353,-85.2"/>
</g>
<!-- lli2&#45;&#45;l1 -->
<g id="edge12" class="edge">
<title>lli2:s&#45;&#45;l1:ne</title>
<path fill="none" stroke="#000000" d="M261,-61.2C261,-43.8539 260.2655,-36.6655 248,-24.4"/>
</g>
<!-- l2 -->
<g id="node20" class="node">
<title>l2</title>
<polygon fill="none" stroke="#000000" points="437.7472,-24.7008 366.2528,-24.7008 366.2528,-.0992 437.7472,-.0992 437.7472,-24.7008"/>
<text text-anchor="middle" x="402" y="-8.2" font-family="Helvetica,sans-Serif" font-size="14.00" fill="#000000">Ledger 2</text>
</g>
<!-- lli3&#45;&#45;l2 -->
<g id="edge13" class="edge">
<title>lli3:s&#45;&#45;l2:nw</title>
<path fill="none" stroke="#000000" d="M353,-61.2C353,-43.8539 353.7345,-36.6655 366,-24.4"/>
</g>
<!-- im3 -->
<g id="node12" class="node">
<title>im3</title>
<polygon fill="none" stroke="#000000" stroke-dasharray="1,5" points="525,-146.3008 471,-146.3008 471,-121.6992 525,-121.6992 525,-146.3008"/>
<text text-anchor="middle" x="498" y="-129.8" font-family="Helvetica,sans-Serif" font-size="14.00" fill="#000000">ILP</text>
</g>
<!-- lli4 -->
<g id="node13" class="node">
<title>lli4</title>
<polygon fill="none" stroke="#000000" stroke-dasharray="1,5" points="488.3542,-85.5008 413.6458,-85.5008 413.6458,-60.8992 488.3542,-60.8992 488.3542,-85.5008"/>
<text text-anchor="middle" x="451" y="-69" font-family="Helvetica,sans-Serif" font-size="14.00" fill="#000000">L2 Plugin</text>
</g>
<!-- im3&#45;&#45;lli4 -->
<g id="edge6" class="edge">
<title>im3:sw&#45;&#45;lli4:n</title>
<path fill="none" stroke="#000000" stroke-dasharray="1,5" d="M471,-122C457.8372,-108.8372 451,-103.815 451,-85.2"/>
</g>
<!-- lli5 -->
<g id="node14" class="node">
<title>lli5</title>
<polygon fill="none" stroke="#000000" stroke-dasharray="1,5" points="583.1781,-85.5008 506.8219,-85.5008 506.8219,-60.8992 583.1781,-60.8992 583.1781,-85.5008"/>
<text text-anchor="middle" x="545" y="-69" font-family="Helvetica,sans-Serif" font-size="14.00" fill="#000000">LN Plugin</text>
</g>
<!-- im3&#45;&#45;lli5 -->
<g id="edge7" class="edge">
<title>im3:se&#45;&#45;lli5:n</title>
<path fill="none" stroke="#000000" stroke-dasharray="1,5" d="M525,-122C538.1628,-108.8372 545,-103.815 545,-85.2"/>
</g>
<!-- lli4&#45;&#45;l2 -->
<g id="edge14" class="edge">
<title>lli4:s&#45;&#45;l2:ne</title>
<path fill="none" stroke="#000000" stroke-dasharray="1,5" d="M451,-61.2C451,-43.8539 450.2655,-36.6655 438,-24.4"/>
</g>
<!-- l3 -->
<g id="node21" class="node">
<title>l3</title>
<polygon fill="none" stroke="#000000" stroke-dasharray="1,5" points="631.572,-24.7008 558.428,-24.7008 558.428,-.0992 631.572,-.0992 631.572,-24.7008"/>
<text text-anchor="middle" x="595" y="-8.2" font-family="Helvetica,sans-Serif" font-size="14.00" fill="#000000">Ledger N</text>
</g>
<!-- lli5&#45;&#45;l3 -->
<g id="edge15" class="edge">
<title>lli5:s&#45;&#45;l3:nw</title>
<path fill="none" stroke="#000000" stroke-dasharray="1,5" d="M545,-61.2C545,-43.8539 545.7345,-36.6655 558,-24.4"/>
</g>
<!-- app2 -->
<g id="node15" class="node">
<title>app2</title>
<polygon fill="#ffffff" stroke="#ffffff" points="672,-272.7008 618,-272.7008 618,-248.0992 672,-248.0992 672,-272.7008"/>
<text text-anchor="middle" x="645" y="-256.2" font-family="Helvetica,sans-Serif" font-size="14.00" fill="#000000">SPSP</text>
</g>
<!-- tr2 -->
<g id="node16" class="node">
<title>tr2</title>
<polygon fill="#ffffff" stroke="#ffffff" points="672,-211.9008 618,-211.9008 618,-187.2992 672,-187.2992 672,-211.9008"/>
<text text-anchor="middle" x="645" y="-195.4" font-family="Helvetica,sans-Serif" font-size="14.00" fill="#000000">PSK</text>
</g>
<!-- app2&#45;&#45;tr2 -->
<g id="edge8" class="edge">
<title>app2&#45;&#45;tr2</title>
<path fill="none" stroke="#000000" d="M645,-248.0962C645,-237.6865 645,-222.8258 645,-212.304"/>
</g>
<!-- im4 -->
<g id="node17" class="node">
<title>im4</title>
<polygon fill="#ffffff" stroke="#ffffff" points="672,-146.3008 618,-146.3008 618,-121.6992 672,-121.6992 672,-146.3008"/>
<text text-anchor="middle" x="645" y="-129.8" font-family="Helvetica,sans-Serif" font-size="14.00" fill="#000000">ILP</text>
</g>
<!-- tr2&#45;&#45;im4 -->
<g id="edge9" class="edge">
<title>tr2&#45;&#45;im4</title>
<path fill="none" stroke="#000000" d="M645,-187.2611C645,-175.6814 645,-158.4366 645,-146.731"/>
</g>
<!-- lli6 -->
<g id="node18" class="node">
<title>lli6</title>
<polygon fill="#ffffff" stroke="#ffffff" points="683.1781,-85.5008 606.8219,-85.5008 606.8219,-60.8992 683.1781,-60.8992 683.1781,-85.5008"/>
<text text-anchor="middle" x="645" y="-69" font-family="Helvetica,sans-Serif" font-size="14.00" fill="#000000">LN Plugin</text>
</g>
<!-- im4&#45;&#45;lli6 -->
<g id="edge10" class="edge">
<title>im4&#45;&#45;lli6</title>
<path fill="none" stroke="#000000" d="M645,-121.6962C645,-111.2865 645,-96.4258 645,-85.904"/>
</g>
<!-- lli6&#45;&#45;l3 -->
<g id="edge16" class="edge">
<title>lli6:s&#45;&#45;l3:ne</title>
<path fill="none" stroke="#000000" stroke-dasharray="1,5" d="M645,-61.2C645,-43.8539 644.2655,-36.6655 632,-24.4"/>
</g>
</g>
</svg>
