<?xml version="1.0" encoding="UTF-8" standalone="no"?>
<!DOCTYPE svg PUBLIC "-//W3C//DTD SVG 1.1//EN"
 "http://www.w3.org/Graphics/SVG/1.1/DTD/svg11.dtd">
<!-- Generated by graphviz version 2.40.1 (20161225.0304)
 -->
<!-- Title: G Pages: 1 -->
<svg width="707pt" height="277pt"
 viewBox="0.00 0.00 707.00 276.80" xmlns="http://www.w3.org/2000/svg" xmlns:xlink="http://www.w3.org/1999/xlink">
<g id="graph0" class="graph" transform="scale(1 1) rotate(0) translate(4 272.8)">
<title>G</title>
<polygon fill="#ffffff" stroke="transparent" points="-4,4 -4,-272.8 703,-272.8 703,4 -4,4"/>
<g id="clust1" class="cluster">
<title>cluster_0</title>
<polygon fill="#d3d3d3" stroke="#d3d3d3" points="118,-8 118,-260.8 208,-260.8 208,-8 118,-8"/>
<text text-anchor="middle" x="163" y="-244.2" font-family="Helvetica,sans-Serif" font-size="14.00" fill="#000000">Sender</text>
</g>
<g id="clust2" class="cluster">
<title>cluster_1</title>
<polygon fill="#d3d3d3" stroke="#d3d3d3" points="216,-8 216,-134.4 398,-134.4 398,-8 216,-8"/>
<text text-anchor="middle" x="307" y="-117.8" font-family="Helvetica,sans-Serif" font-size="14.00" fill="#000000">Connector</text>
</g>
<g id="clust3" class="cluster">
<title>cluster_2</title>
<polygon fill="none" stroke="#000000" stroke-width="1.5" stroke-dasharray="1,5" points="406,-8 406,-134.4 591,-134.4 591,-8 406,-8"/>
<text text-anchor="middle" x="498.5" y="-117.8" font-family="Helvetica,sans-Serif" font-size="14.00" fill="#000000">Connector (N&#45;1 Instances)</text>
</g>
<g id="clust4" class="cluster">
<title>cluster_3</title>
<polygon fill="#d3d3d3" stroke="#d3d3d3" points="599,-8 599,-260.8 691,-260.8 691,-8 599,-8"/>
<text text-anchor="middle" x="645" y="-244.2" font-family="Helvetica,sans-Serif" font-size="14.00" fill="#000000">Receiver</text>
</g>
<!-- app -->
<g id="node1" class="node">
<title>app</title>
<text text-anchor="start" x="10" y="-211.4" font-family="Helvetica,sans-Serif" font-size="14.00" fill="#000000">Application</text>
</g>
<!-- transport -->
<g id="node2" class="node">
<title>transport</title>
<text text-anchor="start" x="10" y="-150.6" font-family="Helvetica,sans-Serif" font-size="14.00" fill="#000000">Transport</text>
</g>
<!-- interledger -->
<g id="node3" class="node">
<title>interledger</title>
<text text-anchor="start" x="10" y="-85" font-family="Helvetica,sans-Serif" font-size="14.00" fill="#000000">Interledger</text>
</g>
<!-- ledger -->
<g id="node4" class="node">
<title>ledger</title>
<text text-anchor="start" x="8" y="-24.2" font-family="Helvetica,sans-Serif" font-size="14.00" fill="#000000">Ledger</text>
</g>
<!-- app1 -->
<g id="node5" class="node">
<title>app1</title>
<polygon fill="#ffffff" stroke="#ffffff" points="190,-227.9008 136,-227.9008 136,-203.2992 190,-203.2992 190,-227.9008"/>
<text text-anchor="middle" x="163" y="-211.4" font-family="Helvetica,sans-Serif" font-size="14.00" fill="#000000">SPSP</text>
</g>
<!-- tr1 -->
<g id="node6" class="node">
<title>tr1</title>
<polygon fill="#ffffff" stroke="#ffffff" points="190,-167.1008 136,-167.1008 136,-142.4992 190,-142.4992 190,-167.1008"/>
<text text-anchor="middle" x="163" y="-150.6" font-family="Helvetica,sans-Serif" font-size="14.00" fill="#000000">PSK</text>
</g>
<!-- app1&#45;&#45;tr1 -->
<g id="edge1" class="edge">
<title>app1&#45;&#45;tr1</title>
<path fill="none" stroke="#000000" d="M163,-203.2962C163,-192.8865 163,-178.0258 163,-167.504"/>
</g>
<!-- im1 -->
<g id="node7" class="node">
<title>im1</title>
<polygon fill="#ffffff" stroke="#ffffff" points="190,-101.5008 136,-101.5008 136,-76.8992 190,-76.8992 190,-101.5008"/>
<text text-anchor="middle" x="163" y="-85" font-family="Helvetica,sans-Serif" font-size="14.00" fill="#000000">ILP</text>
</g>
<!-- tr1&#45;&#45;im1 -->
<g id="edge2" class="edge">
<title>tr1&#45;&#45;im1</title>
<path fill="none" stroke="#000000" d="M163,-142.4611C163,-130.8814 163,-113.6366 163,-101.931"/>
</g>
<!-- lli1 -->
<g id="node8" class="node">
<title>lli1</title>
<polygon fill="#ffffff" stroke="#ffffff" points="200.3542,-40.7008 125.6458,-40.7008 125.6458,-16.0992 200.3542,-16.0992 200.3542,-40.7008"/>
<text text-anchor="middle" x="163" y="-24.2" font-family="Helvetica,sans-Serif" font-size="14.00" fill="#000000">L1 Plugin</text>
</g>
<!-- im1&#45;&#45;lli1 -->
<g id="edge3" class="edge">
<title>im1&#45;&#45;lli1</title>
<path fill="none" stroke="#000000" d="M163,-76.8962C163,-66.4865 163,-51.6258 163,-41.104"/>
</g>
<!-- lli2 -->
<g id="node10" class="node">
<title>lli2</title>
<polygon fill="#ffffff" stroke="#ffffff" points="298.3542,-40.7008 223.6458,-40.7008 223.6458,-16.0992 298.3542,-16.0992 298.3542,-40.7008"/>
<text text-anchor="middle" x="261" y="-24.2" font-family="Helvetica,sans-Serif" font-size="14.00" fill="#000000">L1 Plugin</text>
</g>
<!-- lli1&#45;&#45;lli2 -->
<g id="edge11" class="edge">
<title>lli1&#45;&#45;lli2</title>
<path fill="none" stroke="#000000" d="M200.5156,-28.4C208.2337,-28.4 215.9517,-28.4 223.6698,-28.4"/>
</g>
<!-- im2 -->
<g id="node9" class="node">
<title>im2</title>
<polygon fill="#ffffff" stroke="#ffffff" points="334,-101.5008 280,-101.5008 280,-76.8992 334,-76.8992 334,-101.5008"/>
<text text-anchor="middle" x="307" y="-85" font-family="Helvetica,sans-Serif" font-size="14.00" fill="#000000">ILP</text>
</g>
<!-- im2&#45;&#45;lli2 -->
<g id="edge4" class="edge">
<title>im2:sw&#45;&#45;lli2:n</title>
<path fill="none" stroke="#000000" d="M280,-77.2C266.9844,-64.1844 261,-58.8069 261,-40.4"/>
</g>
<!-- lli3 -->
<g id="node11" class="node">
<title>lli3</title>
<polygon fill="#ffffff" stroke="#ffffff" points="390.3542,-40.7008 315.6458,-40.7008 315.6458,-16.0992 390.3542,-16.0992 390.3542,-40.7008"/>
<text text-anchor="middle" x="353" y="-24.2" font-family="Helvetica,sans-Serif" font-size="14.00" fill="#000000">L2 Plugin</text>
</g>
<!-- im2&#45;&#45;lli3 -->
<g id="edge5" class="edge">
<title>im2:se&#45;&#45;lli3:n</title>
<path fill="none" stroke="#000000" d="M334,-77.2C347.0156,-64.1844 353,-58.8069 353,-40.4"/>
</g>
<!-- lli4 -->
<g id="node13" class="node">
<title>lli4</title>
<polygon fill="none" stroke="#000000" stroke-dasharray="1,5" points="488.3542,-40.7008 413.6458,-40.7008 413.6458,-16.0992 488.3542,-16.0992 488.3542,-40.7008"/>
<text text-anchor="middle" x="451" y="-24.2" font-family="Helvetica,sans-Serif" font-size="14.00" fill="#000000">L2 Plugin</text>
</g>
<!-- lli3&#45;&#45;lli4 -->
<g id="edge12" class="edge">
<title>lli3&#45;&#45;lli4</title>
<path fill="none" stroke="#000000" stroke-dasharray="1,5" d="M390.5156,-28.4C398.2337,-28.4 405.9517,-28.4 413.6698,-28.4"/>
</g>
<!-- im3 -->
<g id="node12" class="node">
<title>im3</title>
<polygon fill="none" stroke="#000000" stroke-dasharray="1,5" points="525,-101.5008 471,-101.5008 471,-76.8992 525,-76.8992 525,-101.5008"/>
<text text-anchor="middle" x="498" y="-85" font-family="Helvetica,sans-Serif" font-size="14.00" fill="#000000">ILP</text>
</g>
<!-- im3&#45;&#45;lli4 -->
<g id="edge6" class="edge">
<title>im3:sw&#45;&#45;lli4:n</title>
<path fill="none" stroke="#000000" stroke-dasharray="1,5" d="M471,-77.2C457.8372,-64.0372 451,-59.015 451,-40.4"/>
</g>
<!-- lli5 -->
<g id="node14" class="node">
<title>lli5</title>
<polygon fill="none" stroke="#000000" stroke-dasharray="1,5" points="583.1781,-40.7008 506.8219,-40.7008 506.8219,-16.0992 583.1781,-16.0992 583.1781,-40.7008"/>
<text text-anchor="middle" x="545" y="-24.2" font-family="Helvetica,sans-Serif" font-size="14.00" fill="#000000">LN Plugin</text>
</g>
<!-- im3&#45;&#45;lli5 -->
<g id="edge7" class="edge">
<title>im3:se&#45;&#45;lli5:n</title>
<path fill="none" stroke="#000000" stroke-dasharray="1,5" d="M525,-77.2C538.1628,-64.0372 545,-59.015 545,-40.4"/>
</g>
<!-- lli6 -->
<g id="node18" class="node">
<title>lli6</title>
<polygon fill="#ffffff" stroke="#ffffff" points="683.1781,-40.7008 606.8219,-40.7008 606.8219,-16.0992 683.1781,-16.0992 683.1781,-40.7008"/>
<text text-anchor="middle" x="645" y="-24.2" font-family="Helvetica,sans-Serif" font-size="14.00" fill="#000000">LN Plugin</text>
</g>
<!-- lli5&#45;&#45;lli6 -->
<g id="edge13" class="edge">
<title>lli5&#45;&#45;lli6</title>
<path fill="none" stroke="#000000" stroke-dasharray="1,5" d="M583.2813,-28.4C590.9961,-28.4 598.7109,-28.4 606.4258,-28.4"/>
</g>
<!-- app2 -->
<g id="node15" class="node">
<title>app2</title>
<polygon fill="#ffffff" stroke="#ffffff" points="672,-227.9008 618,-227.9008 618,-203.2992 672,-203.2992 672,-227.9008"/>
<text text-anchor="middle" x="645" y="-211.4" font-family="Helvetica,sans-Serif" font-size="14.00" fill="#000000">SPSP</text>
</g>
<!-- tr2 -->
<g id="node16" class="node">
<title>tr2</title>
<polygon fill="#ffffff" stroke="#ffffff" points="672,-167.1008 618,-167.1008 618,-142.4992 672,-142.4992 672,-167.1008"/>
<text text-anchor="middle" x="645" y="-150.6" font-family="Helvetica,sans-Serif" font-size="14.00" fill="#000000">PSK</text>
</g>
<!-- app2&#45;&#45;tr2 -->
<g id="edge8" class="edge">
<title>app2&#45;&#45;tr2</title>
<path fill="none" stroke="#000000" d="M645,-203.2962C645,-192.8865 645,-178.0258 645,-167.504"/>
</g>
<!-- im4 -->
<g id="node17" class="node">
<title>im4</title>
<polygon fill="#ffffff" stroke="#ffffff" points="672,-101.5008 618,-101.5008 618,-76.8992 672,-76.8992 672,-101.5008"/>
<text text-anchor="middle" x="645" y="-85" font-family="Helvetica,sans-Serif" font-size="14.00" fill="#000000">ILP</text>
</g>
<!-- tr2&#45;&#45;im4 -->
<g id="edge9" class="edge">
<title>tr2&#45;&#45;im4</title>
<path fill="none" stroke="#000000" d="M645,-142.4611C645,-130.8814 645,-113.6366 645,-101.931"/>
</g>
<!-- im4&#45;&#45;lli6 -->
<g id="edge10" class="edge">
<title>im4&#45;&#45;lli6</title>
<path fill="none" stroke="#000000" d="M645,-76.8962C645,-66.4865 645,-51.6258 645,-41.104"/>
</g>
</g>
</svg>
