<?xml version="1.0" encoding="UTF-8" standalone="no"?>
<!DOCTYPE svg PUBLIC "-//W3C//DTD SVG 1.1//EN"
 "http://www.w3.org/Graphics/SVG/1.1/DTD/svg11.dtd">
<!-- Generated by graphviz version 2.40.1 (20161225.0304)
 -->
<!-- Title: G Pages: 1 -->
<svg width="368pt" height="247pt"
 viewBox="0.00 0.00 368.00 247.20" xmlns="http://www.w3.org/2000/svg" xmlns:xlink="http://www.w3.org/1999/xlink">
<g id="graph0" class="graph" transform="scale(1 1) rotate(0) translate(4 243.2)">
<title>G</title>
<polygon fill="#ffffff" stroke="transparent" points="-4,4 -4,-243.2 364,-243.2 364,4 -4,4"/>
<g id="clust1" class="cluster">
<title>cluster_0</title>
<polygon fill="#d3d3d3" stroke="#d3d3d3" points="118,-8 118,-231.2 352,-231.2 352,-8 118,-8"/>
</g>
<!-- app -->
<g id="node1" class="node">
<title>app</title>
<text text-anchor="start" x="10" y="-206.6" font-family="Helvetica,sans-Serif" font-size="14.00" fill="#000000">Application</text>
</g>
<!-- transport -->
<g id="node2" class="node">
<title>transport</title>
<text text-anchor="start" x="8" y="-145.8" font-family="Helvetica,sans-Serif" font-size="14.00" fill="#000000">Transport</text>
</g>
<!-- interledger -->
<g id="node3" class="node">
<title>interledger</title>
<text text-anchor="start" x="10" y="-85" font-family="Helvetica,sans-Serif" font-size="14.00" fill="#000000">Interledger</text>
</g>
<!-- ledger -->
<g id="node4" class="node">
<title>ledger</title>
<text text-anchor="start" x="10" y="-24.2" font-family="Helvetica,sans-Serif" font-size="14.00" fill="#000000">Ledger</text>
</g>
<!-- app1 -->
<g id="node5" class="node">
<title>app1</title>
<polygon fill="#ffffff" stroke="#ffffff" points="334,-223.1008 280,-223.1008 280,-198.4992 334,-198.4992 334,-223.1008"/>
<text text-anchor="middle" x="307" y="-206.6" font-family="Helvetica,sans-Serif" font-size="14.00" fill="#000000">SPSP</text>
</g>
<!-- tr1 -->
<g id="node6" class="node">
<title>tr1</title>
<polygon fill="#add8e6" stroke="#add8e6" points="344.3303,-162.3008 269.6697,-162.3008 269.6697,-137.6992 344.3303,-137.6992 344.3303,-162.3008"/>
<text text-anchor="middle" x="307" y="-145.8" font-family="Helvetica,sans-Serif" font-size="14.00" fill="#000000">STREAM</text>
</g>
<!-- app1&#45;&#45;tr1 -->
<g id="edge1" class="edge">
<title>app1&#45;&#45;tr1</title>
<path fill="none" stroke="#000000" d="M307,-198.4962C307,-188.0865 307,-173.2258 307,-162.704"/>
</g>
<!-- im1 -->
<g id="node9" class="node">
<title>im1</title>
<polygon fill="#ffffff" stroke="#ffffff" points="252,-101.5008 198,-101.5008 198,-76.8992 252,-76.8992 252,-101.5008"/>
<text text-anchor="middle" x="225" y="-85" font-family="Helvetica,sans-Serif" font-size="14.00" fill="#000000">ILPv4</text>
</g>
<!-- tr1&#45;&#45;im1 -->
<g id="edge3" class="edge">
<title>tr1&#45;&#45;im1</title>
<path fill="none" stroke="#000000" d="M290.4061,-137.6962C276.273,-127.2171 256.0568,-112.2275 241.8507,-101.6942"/>
</g>
<!-- tr2 -->
<g id="node7" class="node">
<title>tr2</title>
<polygon fill="#ffffff" stroke="#ffffff" points="252,-162.3008 198,-162.3008 198,-137.6992 252,-137.6992 252,-162.3008"/>
<text text-anchor="middle" x="225" y="-145.8" font-family="Helvetica,sans-Serif" font-size="14.00" fill="#000000">PSK2</text>
</g>
<!-- tr2&#45;&#45;im1 -->
<g id="edge2" class="edge">
<title>tr2&#45;&#45;im1</title>
<path fill="none" stroke="#000000" d="M225,-137.6962C225,-127.2865 225,-112.4258 225,-101.904"/>
</g>
<!-- tr3 -->
<g id="node8" class="node">
<title>tr3</title>
<polygon fill="#ffffff" stroke="#ffffff" points="180,-162.3008 126,-162.3008 126,-137.6992 180,-137.6992 180,-162.3008"/>
<text text-anchor="middle" x="153" y="-145.8" font-family="Helvetica,sans-Serif" font-size="14.00" fill="#000000">IPR</text>
</g>
<!-- tr3&#45;&#45;im1 -->
<g id="edge4" class="edge">
<title>tr3&#45;&#45;im1</title>
<path fill="none" stroke="#000000" d="M167.5703,-137.6962C179.9798,-127.2171 197.7306,-112.2275 210.2043,-101.6942"/>
</g>
<!-- lli1 -->
<g id="node10" class="node">
<title>lli1</title>
<polygon fill="#ffffff" stroke="#ffffff" points="217,-40.7008 163,-40.7008 163,-16.0992 217,-16.0992 217,-40.7008"/>
<text text-anchor="middle" x="190" y="-24.2" font-family="Helvetica,sans-Serif" font-size="14.00" fill="#000000">BTP</text>
</g>
<!-- im1&#45;&#45;lli1 -->
<g id="edge5" class="edge">
<title>im1&#45;&#45;lli1</title>
<path fill="none" stroke="#000000" d="M217.9172,-76.8962C211.9248,-66.4865 203.3701,-51.6258 197.3132,-41.104"/>
</g>
<!-- lli2 -->
<g id="node11" class="node">
<title>lli2</title>
<polygon fill="#ffffff" stroke="#ffffff" points="289,-40.7008 235,-40.7008 235,-16.0992 289,-16.0992 289,-40.7008"/>
<text text-anchor="middle" x="262" y="-24.2" font-family="Helvetica,sans-Serif" font-size="14.00" fill="#000000">...</text>
</g>
<!-- im1&#45;&#45;lli2 -->
<g id="edge6" class="edge">
<title>im1&#45;&#45;lli2</title>
<path fill="none" stroke="#000000" d="M232.4875,-76.8962C238.8224,-66.4865 247.8659,-51.6258 254.2689,-41.104"/>
</g>
</g>
</svg>
