<?xml version="1.0" encoding="UTF-8" standalone="no"?>
<!DOCTYPE svg PUBLIC "-//W3C//DTD SVG 1.1//EN"
 "http://www.w3.org/Graphics/SVG/1.1/DTD/svg11.dtd">
<!-- Generated by graphviz version 2.40.1 (20161225.0304)
 -->
<!-- Title: G Pages: 1 -->
<svg width="268pt" height="94pt"
 viewBox="0.00 0.00 268.13 93.60" xmlns="http://www.w3.org/2000/svg" xmlns:xlink="http://www.w3.org/1999/xlink">
<g id="graph0" class="graph" transform="scale(1 1) rotate(0) translate(4 89.6)">
<title>G</title>
<polygon fill="#ffffff" stroke="transparent" points="-4,4 -4,-89.6 264.1339,-89.6 264.1339,4 -4,4"/>
<!-- Proposed -->
<g id="node1" class="node">
<title>Proposed</title>
<polygon fill="none" stroke="#000000" points="75.8654,-85.5008 .0448,-85.5008 .0448,-60.8992 75.8654,-60.8992 75.8654,-85.5008"/>
<text text-anchor="middle" x="37.9551" y="-69" font-family="Helvetica,sans-Serif" font-size="14.00" fill="#000000">Proposed</text>
</g>
<!-- Prepared -->
<g id="node2" class="node">
<title>Prepared</title>
<polygon fill="none" stroke="#000000" points="167.5271,-85.5008 94.3831,-85.5008 94.3831,-60.8992 167.5271,-60.8992 167.5271,-85.5008"/>
<text text-anchor="middle" x="130.9551" y="-69" font-family="Helvetica,sans-Serif" font-size="14.00" fill="#000000">Prepared</text>
</g>
<!-- Proposed&#45;&gt;Prepared -->
<g id="edge1" class="edge">
<title>Proposed&#45;&gt;Prepared</title>
<path fill="none" stroke="#000000" d="M76.0996,-73.2C78.7246,-73.2 81.3495,-73.2 83.9744,-73.2"/>
<polygon fill="#000000" stroke="#000000" points="84.0991,-76.7001 94.0991,-73.2 84.099,-69.7001 84.0991,-76.7001"/>
</g>
<!-- Rejected -->
<g id="node4" class="node">
<title>Rejected</title>
<polygon fill="none" stroke="#000000" points="258.6897,-24.7008 187.2205,-24.7008 187.2205,-.0992 258.6897,-.0992 258.6897,-24.7008"/>
<text text-anchor="middle" x="222.9551" y="-8.2" font-family="Helvetica,sans-Serif" font-size="14.00" fill="#000000">Rejected</text>
</g>
<!-- Proposed&#45;&gt;Rejected -->
<g id="edge3" class="edge">
<title>Proposed:s&#45;&gt;Rejected:w</title>
<path fill="none" stroke="#000000" d="M37.9551,-61.2C37.9551,-29.2164 134.1524,-14.8306 176.8864,-12.6856"/>
<polygon fill="#000000" stroke="#000000" points="177.0584,-16.1822 186.9551,-12.4 176.8598,-9.185 177.0584,-16.1822"/>
</g>
<!-- Executed -->
<g id="node3" class="node">
<title>Executed</title>
<polygon fill="none" stroke="#000000" points="260.3136,-85.5008 185.5966,-85.5008 185.5966,-60.8992 260.3136,-60.8992 260.3136,-85.5008"/>
<text text-anchor="middle" x="222.9551" y="-69" font-family="Helvetica,sans-Serif" font-size="14.00" fill="#000000">Executed</text>
</g>
<!-- Prepared&#45;&gt;Executed -->
<g id="edge2" class="edge">
<title>Prepared&#45;&gt;Executed</title>
<path fill="none" stroke="#000000" d="M167.6113,-73.2C170.2596,-73.2 172.9079,-73.2 175.5562,-73.2"/>
<polygon fill="#000000" stroke="#000000" points="175.7711,-76.7001 185.771,-73.2 175.771,-69.7001 175.7711,-76.7001"/>
</g>
<!-- Prepared&#45;&gt;Rejected -->
<g id="edge4" class="edge">
<title>Prepared:s&#45;&gt;Rejected:w</title>
<path fill="none" stroke="#000000" d="M130.9551,-61.2C130.9551,-31.6688 149.3489,-15.9217 176.8593,-12.9285"/>
<polygon fill="#000000" stroke="#000000" points="177.1518,-16.4181 186.9551,-12.4 176.7858,-9.4277 177.1518,-16.4181"/>
</g>
<!-- Executed&#45;&gt;Rejected -->
</g>
</svg>
