<?xml version="1.0" encoding="UTF-8" standalone="no"?>
<!DOCTYPE svg PUBLIC "-//W3C//DTD SVG 1.1//EN"
 "http://www.w3.org/Graphics/SVG/1.1/DTD/svg11.dtd">
<!-- Generated by graphviz version 2.38.0 (20140413.2041)
 -->
<!-- Title: G Pages: 1 -->
<svg width="436pt" height="180pt"
 viewBox="0.00 0.00 436.46 180.20" xmlns="http://www.w3.org/2000/svg" xmlns:xlink="http://www.w3.org/1999/xlink">
<g id="graph0" class="graph" transform="scale(1 1) rotate(0) translate(4 176.2)">
<title>G</title>
<polygon fill="white" stroke="none" points="-4,4 -4,-176.2 432.457,-176.2 432.457,4 -4,4"/>
<!-- host1 -->
<g id="node1" class="node"><title>host1</title>
<polygon fill="none" stroke="black" points="-1.42109e-14,-61.3 -1.42109e-14,-110.9 124.457,-110.9 124.457,-61.3 -1.42109e-14,-61.3"/>
<text text-anchor="middle" x="62.2283" y="-94.3" font-family="Times,serif" font-size="14.00">Interledger Module</text>
<polyline fill="none" stroke="black" points="-1.42109e-14,-86.1 124.457,-86.1 "/>
<text text-anchor="middle" x="17.75" y="-69.5" font-family="Times,serif" font-size="14.00"> </text>
<polyline fill="none" stroke="black" points="35.5,-61.3 35.5,-86.1 "/>
<text text-anchor="middle" x="79.8082" y="-69.5" font-family="Times,serif" font-size="14.00">L1 Plugin</text>
</g>
<!-- l1 -->
<g id="node4" class="node"><title>l1</title>
<polygon fill="none" stroke="black" points="162.371,-24.7008 96.0857,-24.7008 96.0857,-0.0992 162.371,-0.0992 162.371,-24.7008"/>
<text text-anchor="middle" x="129.228" y="-8.2" font-family="Times,serif" font-size="14.00">Ledger 1</text>
</g>
<!-- host1&#45;&#45;l1 -->
<g id="edge1" class="edge"><title>host1:lli1:s&#45;&#45;l1:nw</title>
<path fill="none" stroke="black" d="M80.2283,-60.8C80.2283,-43.2909 83.8475,-37.1808 96.2283,-24.8"/>
</g>
<!-- host2 -->
<g id="node2" class="node"><title>host2</title>
<polygon fill="none" stroke="black" points="142.612,-61.3 142.612,-110.9 285.845,-110.9 285.845,-61.3 142.612,-61.3"/>
<text text-anchor="middle" x="214.228" y="-94.3" font-family="Times,serif" font-size="14.00">Interledger Module</text>
<polyline fill="none" stroke="black" points="142.612,-86.1 285.845,-86.1 "/>
<text text-anchor="middle" x="178.42" y="-69.5" font-family="Times,serif" font-size="14.00">L1 Plugin</text>
<polyline fill="none" stroke="black" points="214.228,-61.3 214.228,-86.1 "/>
<text text-anchor="middle" x="250.036" y="-69.5" font-family="Times,serif" font-size="14.00">L2 Plugin</text>
</g>
<!-- host2&#45;&#45;l1 -->
<g id="edge2" class="edge"><title>host2:lli2:s&#45;&#45;l1:ne</title>
<path fill="none" stroke="black" d="M178.228,-60.8C178.228,-43.2909 174.609,-37.1808 162.228,-24.8"/>
</g>
<!-- l2 -->
<g id="node5" class="node"><title>l2</title>
<polygon fill="none" stroke="black" points="332.371,-24.7008 266.086,-24.7008 266.086,-0.0992 332.371,-0.0992 332.371,-24.7008"/>
<text text-anchor="middle" x="299.228" y="-8.2" font-family="Times,serif" font-size="14.00">Ledger 2</text>
</g>
<!-- host2&#45;&#45;l2 -->
<g id="edge3" class="edge"><title>host2:lli3:s&#45;&#45;l2:nw</title>
<path fill="none" stroke="black" d="M250.228,-60.8C250.228,-43.2909 253.848,-37.1808 266.228,-24.8"/>
</g>
<!-- host3 -->
<g id="node3" class="node"><title>host3</title>
<polygon fill="none" stroke="black" points="304,-61.3 304,-110.9 428.457,-110.9 428.457,-61.3 304,-61.3"/>
<text text-anchor="middle" x="366.228" y="-94.3" font-family="Times,serif" font-size="14.00">Interledger Module</text>
<polyline fill="none" stroke="black" points="304,-86.1 428.457,-86.1 "/>
<text text-anchor="middle" x="347.808" y="-69.5" font-family="Times,serif" font-size="14.00">L2 Plugin</text>
<polyline fill="none" stroke="black" points="391.616,-61.3 391.616,-86.1 "/>
<text text-anchor="middle" x="409.866" y="-69.5" font-family="Times,serif" font-size="14.00"> </text>
</g>
<!-- host3&#45;&#45;l2 -->
<g id="edge4" class="edge"><title>host3:lli4:s&#45;&#45;l2:ne</title>
<path fill="none" stroke="black" d="M348.228,-60.8C348.228,-43.2909 344.609,-37.1808 332.228,-24.8"/>
</g>
<!-- app1 -->
<g id="node6" class="node"><title>app1</title>
<polygon fill="none" stroke="black" points="103.327,-172.101 21.13,-172.101 21.13,-147.499 103.327,-147.499 103.327,-172.101"/>
<text text-anchor="middle" x="62.2283" y="-155.6" font-family="Times,serif" font-size="14.00">Application</text>
</g>
<!-- app1&#45;&#45;host1 -->
<g id="edge5" class="edge"><title>app1&#45;&#45;host1:im1</title>
<path fill="none" stroke="black" d="M62.2283,-147.499C62.2283,-137.896 62.2283,-123.744 62.2283,-111.4"/>
</g>
<!-- app2 -->
<g id="node7" class="node"><title>app2</title>
<polygon fill="none" stroke="black" points="407.327,-172.101 325.13,-172.101 325.13,-147.499 407.327,-147.499 407.327,-172.101"/>
<text text-anchor="middle" x="366.228" y="-155.6" font-family="Times,serif" font-size="14.00">Application</text>
</g>
<!-- app2&#45;&#45;host3 -->
<g id="edge6" class="edge"><title>app2&#45;&#45;host3:im3</title>
<path fill="none" stroke="black" d="M366.228,-147.499C366.228,-137.896 366.228,-123.744 366.228,-111.4"/>
</g>
</g>
</svg>
